/* XPM */
static char *result[] = {
/* columns rows colors chars-per-pixel */
"30 32 175 2 ",
"   c #000001",
".  c #00000B",
"X  c #120007",
"o  c #000014",
"O  c #00001D",
"+  c #3A0016",
"@  c #000224",
"#  c #0A0F25",
"$  c #000129",
"%  c #000C2C",
"&  c #000A27",
"*  c #0D1127",
"=  c #01122C",
"-  c #0E1329",
";  c #1A192D",
":  c #00003B",
">  c #000C30",
",  c #031636",
"<  c #1A1F36",
"1  c #2C0026",
"2  c #2A1E31",
"3  c #271830",
"4  c #361836",
"5  c #371829",
"6  c #1F233B",
"7  c #20243C",
"8  c #282139",
"9  c #342C36",
"0  c #3E2739",
"q  c #5A161C",
"w  c #451F34",
"e  c #6A0A28",
"r  c #44202F",
"t  c #4A2B3C",
"y  c #492736",
"u  c #5B2E39",
"i  c #443238",
"p  c #5B343C",
"a  c #7E2335",
"s  c #000049",
"d  c #001346",
"f  c #000554",
"g  c #000F54",
"h  c #001850",
"j  c #082847",
"k  c #1D2440",
"l  c #0E364E",
"z  c #002257",
"x  c #002659",
"c  c #003657",
"v  c #14325B",
"b  c #222640",
"n  c #252945",
"m  c #2E334F",
"M  c #26364F",
"N  c #2E3452",
"B  c #2C395C",
"V  c #24365B",
"C  c #353A57",
"Z  c #363C5B",
"A  c #3A3F5E",
"S  c #35394C",
"D  c #343F62",
"F  c #4C2E41",
"G  c #522E41",
"H  c #453A4A",
"J  c #4B3654",
"K  c #6A3D45",
"L  c #623645",
"P  c #793B49",
"I  c #004259",
"U  c #2C4359",
"Y  c #3C405F",
"T  c #00586C",
"R  c #3C4262",
"E  c #27596A",
"W  c #2F5470",
"Q  c #3D5878",
"!  c #534145",
"~  c #5A464A",
"^  c #474258",
"/  c #564C52",
"(  c #644748",
")  c #7D454F",
"_  c #75474A",
"`  c #6E534C",
"'  c #73554B",
"]  c #7F4753",
"[  c #695456",
"{  c #765A53",
"}  c #795C56",
"|  c #72595A",
" . c #664954",
".. c #7D6358",
"X. c #4E4961",
"o. c #534C63",
"O. c #475B77",
"+. c #6B5A66",
"@. c #6C5D6A",
"#. c #685864",
"$. c #40607F",
"%. c #7C656C",
"&. c #7E686E",
"*. c #7F6A72",
"=. c #7C747A",
"-. c #80444F",
";. c #994C4E",
":. c #825B4A",
">. c #814550",
",. c #8A4450",
"<. c #805F51",
"1. c #9B5653",
"2. c #B35B50",
"3. c #856155",
"4. c #8D6B5F",
"5. c #87645B",
"6. c #B4655E",
"7. c #985F68",
"8. c #8E6C61",
"9. c #81686E",
"0. c #947264",
"q. c #8C7274",
"w. c #8D767E",
"e. c #957375",
"r. c #AC6563",
"t. c #B26A66",
"y. c #A27A68",
"u. c #B37979",
"i. c #CD6A5C",
"p. c #CE7267",
"a. c #CA786C",
"s. c #B18878",
"d. c #CB8172",
"f. c #D98F7B",
"g. c #E2977F",
"h. c #3D6E88",
"j. c #476481",
"k. c #49728B",
"l. c #9C7B83",
"z. c #A87F87",
"x. c #3E8EA3",
"c. c #2A9FB4",
"v. c #399DB1",
"b. c #6C8F9F",
"n. c #4B92A6",
"m. c #409DB0",
"M. c #7293A2",
"N. c #46A0B3",
"B. c #B38B81",
"V. c #CD9D86",
"C. c #D09F8A",
"Z. c #D09D84",
"A. c #D3A186",
"S. c #D5A48E",
"D. c #DFA58D",
"F. c #DAA790",
"G. c #E4AC8F",
"H. c #E2A78C",
"J. c #F0B18D",
"K. c #E9AD91",
"L. c #E6AF91",
"P. c #EDB496",
"I. c #EEB699",
"U. c #F2B79A",
"Y. c #F3BA9B",
"T. c #F8BD9D",
"R. c #F6B793",
"E. c #E9BDAA",
"W. c #FABFA2",
"Q. c #FFC4A2",
"!. c #FFCDA9",
"~. c #FFD2AE",
"^. c #C5C3CC",
"/. c #DED4D6",
"(. c None",
/* pixels */
"(.(.(.(.(.(.(.(.(.(.* - - * * * * * * - - - (.(.(.(.(.(.(.(.",
"(.(.(.(.(.(.(.(.(.(.6 b 7 7 7 6 6 7 6 7 7 6 (.(.(.(.(.(.(.(.",
"(.(.(.(.(.(.(.(.o < m Z C C C C C C C C Z N < o (.(.(.(.(.(.",
"(.(.(.(.(.(.(.(.< m A R R R R R R R R R R Z m < (.(.(.(.(.(.",
"(.(.(.(.(.(.# 6 N A A Y Y Y A A A A R R Y A Z N 6 * (.(.(.(.",
"(.(.(.(.(.(.# n Z R Y A A A A A A Z B Z Z Y X.Z n * (.(.(.(.",
"(.(.(.(.(.(.# b C R Y A A A A A R B z h B R R C 7 # (.(.(.(.",
"(.(.(.(.(.(.# b C R A A A A Y A B o.9.9.X.v B V 6 * (.(.(.(.",
"(.(.(.(.(.(.# b C R A A A A A B z 9.F.S.@.s f h , ; (.(.(.(.",
"(.(.(.(.(.(.# b C R D A Y A A B g q.W.Q.B.%.q.%.H @ (.(.(.(.",
"(.(.(.(.(.(.# b C R A A A A A B g e.U.!.W.I.U.Z...  (.(.(.(.",
"(.(.(.(.(.(.# b C R A A B B B V z %.C.P.P.T.!.I.4.  (.(.(.(.",
"(.(.(.(.(.(.# b C R Y B z g g x V ^ [ | | s.T.I.4.  (.(.(.(.",
"(.(.(.(.(.(.# b C R Z o.%.q.q.*.X.Y [ / O | I.Y.4.  (.(.(.(.",
"(.(.(.(.(.(.# n Z D z %.S.U.Y.S.@.@.S.C.! { Y.T.8.  (.(.(.(.",
"(.(.(.(.(.(.# 6 N B g q.U.!.Q.D.+.9.W.T.{ ( H.K.5.  (.(.(.(.",
"(.(.(.(.(.(.(.(.< j f w.T.Q.g.r.J q.W.Y...y a.d.' O (.(.(.(.",
"(.(.(.(.(.(.(.(.o = s %.S.K.f.t.J +.C.C.` 1 ;.;.u $ (.(.(.(.",
"(.(.(.(.(.(.(.(.(.(.$ S #.B.R.G.[ . L ( 9 3 p p (.(.(.(.(.(.",
"(.(.(.(.(.(.(.(.(.(.y 4 : #.S.G.s.` ` ~ 9 $ @ @ (.(.(.(.(.(.",
"(.(.(.(.(.(.(.(.& y ) P + X i 0.f.P.I.V.{   (.(.(.(.(.(.(.(.",
"(.(.(.(.(.(.(.(.& G ,.7.w.=./ y.I.~.~.I.0.  (.(.(.(.(.(.(.(.",
"(.(.(.(.(.(.(.(.@ y a z.^./.E.R.!.!.~.Y.8.  (.(.(.(.(.(.(.(.",
"(.(.(.(.(.(.(.(.@ 4 e l.^./.E.J.G.L.P.f...  (.(.(.(.(.(.(.(.",
"(.(.(.(.(.(.(.(.@ > w  .*.q.3.:.:.3.3.' i @ & @ (.(.(.(.(.(.",
"(.(.(.(.(.(.(.(.u K P ( ^ c I c d : : : > 2 F t (.(.(.(.(.(.",
"(.(.(.(.(.(.@ p 1.6.2.y.b.v.m.x.k.Q $.W j 5 ) >.t @ (.(.(.(.",
"(.(.(.(.(.(.@ K 6.p.i.u.M.c.N.n.k.O.$.O.S u -.>.F & (.(.(.(.",
"(.(.(.(.(.(.@ K 6.p.p.t.@.T E E U M l J ] >.L 0 8 = (.(.(.(.",
"(.(.(.(.(.(.@ p 1.6.t.1.q         o . r >.>.0 @ = < (.(.(.(.",
"(.(.(.(.(.(.(.(.p K ( p (.(.(.(.(.(.= 2 t t (.(.(.(.(.(.(.(.",
"(.(.(.(.(.(.(.(.@ $ $ @ (.(.(.(.(.(.; = = & (.(.(.(.(.(.(.(."
};
