/* XPM */
static char *result[] = {
/* columns rows colors chars-per-pixel */
"30 32 174 2 ",
"   c #000000",
".  c #00000F",
"X  c #000014",
"o  c #00001B",
"O  c #000025",
"+  c #0A0F25",
"@  c #00002C",
"#  c #110D2F",
"$  c #0D1127",
"%  c #0C132A",
"&  c #00122C",
"*  c #10142C",
"=  c #00003E",
"-  c #001D3C",
";  c #1B1F36",
":  c #230020",
">  c #2A0D2B",
",  c #22092B",
"<  c #241A2C",
"1  c #2A1C32",
"2  c #1F233B",
"3  c #20243C",
"4  c #2D263A",
"5  c #2C2233",
"6  c #342535",
"7  c #3C2934",
"8  c #5E1617",
"9  c #650F15",
"0  c #6E1F1E",
"q  c #681519",
"w  c #4D2F39",
"e  c #4B2836",
"r  c #582C36",
"t  c #56333F",
"y  c #5F353C",
"u  c #5A3333",
"i  c #613236",
"p  c #68363E",
"a  c #72373F",
"s  c #654030",
"d  c #001244",
"f  c #000054",
"g  c #000A54",
"h  c #002944",
"j  c #002558",
"k  c #003256",
"l  c #00345D",
"z  c #00385D",
"x  c #1C3B5E",
"c  c #232740",
"v  c #252945",
"b  c #2E334E",
"n  c #233349",
"m  c #223254",
"M  c #2F3450",
"N  c #21375C",
"B  c #2C3B5D",
"V  c #2B3851",
"C  c #343957",
"Z  c #343D5C",
"A  c #3A3F5E",
"S  c #3B374B",
"D  c #0E3C60",
"F  c #453141",
"G  c #5B3741",
"H  c #4D3759",
"J  c #623540",
"K  c #683C45",
"L  c #713D47",
"P  c #773F4B",
"I  c #3B405F",
"U  c #294258",
"Y  c #00586B",
"T  c #1D5B6C",
"R  c #214C6A",
"E  c #3C4262",
"W  c #355572",
"Q  c #285466",
"!  c #4B424E",
"~  c #59424D",
"^  c #49425F",
"/  c #5B465F",
"(  c #5B4E5E",
")  c #534A5E",
"_  c #7C434E",
"`  c #614457",
"'  c #644A5F",
"]  c #694652",
"[  c #7A5C52",
"{  c #7B584C",
"}  c #7D6056",
"|  c #776055",
" . c #414362",
".. c #4E5F6F",
"X. c #485D7B",
"o. c #664B61",
"O. c #6E4D60",
"+. c #625F6C",
"@. c #745E73",
"#. c #596378",
"$. c #7C6765",
"%. c #7F6472",
"&. c #736F79",
"*. c #657279",
"=. c #7A7178",
"-. c #757079",
";. c #833841",
":. c #8C3942",
">. c #9E5049",
",. c #894953",
"<. c #844852",
"1. c #805D51",
"2. c #81515E",
"3. c #9F5B59",
"4. c #A2544C",
"5. c #A35A57",
"6. c #AC5F5A",
"7. c #8E6B5E",
"8. c #826257",
"9. c #B1604F",
"0. c #B9655A",
"q. c #806360",
"w. c #826B6B",
"e. c #8B6B60",
"r. c #936F63",
"t. c #996B61",
"y. c #986F6F",
"u. c #987467",
"i. c #957063",
"p. c #8E6E7B",
"a. c #8A7275",
"s. c #907475",
"d. c #91797F",
"f. c #A36064",
"g. c #A76865",
"h. c #A46B6F",
"j. c #BA6A64",
"k. c #BA6C6A",
"l. c #B36A64",
"z. c #A5747D",
"x. c #D49B7C",
"c. c #E39378",
"v. c #486482",
"b. c #44728C",
"n. c #54738B",
"m. c #6D7B91",
"M. c #3F91A5",
"N. c #399FB2",
"B. c #4E92A6",
"V. c #5D93A7",
"C. c #6193A7",
"Z. c #68A2B4",
"A. c #AA938D",
"S. c #CF9D85",
"D. c #D99F97",
"F. c #DAA68B",
"G. c #DAA78E",
"H. c #DEA890",
"J. c #E1A489",
"K. c #EFB798",
"L. c #F5BB9C",
"P. c #FABA97",
"I. c #FEC09E",
"U. c #ECC0AD",
"Y. c #FEC2A2",
"T. c #FFCFAB",
"R. c #FFD6BB",
"E. c #B7BFCA",
"W. c #BAC0CA",
"Q. c #C3C2CC",
"!. c #DAD3D6",
"~. c #F2DCDB",
"^. c #E8D9D9",
"/. c None",
/* pixels */
"/./././././././././.$ % $ $ $ $ $ $ $ $ $ $ /./././././././.",
"/./././././././././.2 c 3 3 3 3 3 3 3 3 c 3 /./././././././.",
"/./././././././.X ; M Z Z C C C C C C C C M ; X /./././././.",
"/./././././././.; b A E I E E I I E E E E A b ; /./././././.",
"/./././././.+ 2 M A A A E A A A A A A I I I A b 2 + /./././.",
"/./././././.+ v Z E E A A A A A A A A A A I E A v $ /./././.",
"/./././././.+ c C E I A A A I A A A A A A I E C c + /./././.",
"/./././././.+ c C E A A A A A A A A A A A A E C c + /./././.",
"/./././././.% 3 Z E I I A A A A A A A A A A E C c + /./././.",
"/./././././.o d C I I I A A E Z A A A A A A E C - o /./././.",
"/./././././.  @ m  .I I A A A A A A A A A A  .m @   /./././.",
"/./././././.8.} ) B Z I A A A A A A A A A A B ) q.8././././.",
"/./././.  } F.G.w.j Z A A A A A A A A A A B j w.G.F.}   /./.",
"/./././.  u.I.Y.s.g B A A A A A A A A A A B g s.Y.Y.u.  /./.",
"/./././.  u.Y.Y.a.f N I A A A A A A A A A m f a.Y.Y.u.  /./.",
"/./././.  } F.H.y.H A B Z Z A A A I Z Z R H H y.G.F.}   /./.",
"/./././././.| t.l.f./ l l x Z E E Z x D D / f.l.t.[ /./././.",
"/./././././.  : >.6.2.' O.o.^ Z Z ^ o.o.o.2.6.>.:   /./././.",
"/./././././.      0 5.k.j.f.o.D x o.f.l.k.5.0       /./././.",
"/./././././.1.w.*.=.g.0.0.3.` k k / 3.0.0.g.=.*.w.1././././.",
"/./././.  [ x.U.!.E.d.q i w 4 - - 4 w i 9 d.Q.!.U.x.[   /./.",
"/./././.  r.P.R.~.Q.-.  , 1 < < < < 1 ,   &.W.^.R.P.i.  /./.",
"/./././.  e.K.Y.D.z.~ > P <.G 6 6 t _ _ r ! ..A.Y.Y.u.  /./.",
"/./././.  e.K.P.c.9.u # P <.L J p L <.<.K >   s F.G.}   /./.",
"/./././.  r.L.T.Y.F.{   e a ;.:.:.;.a y G w O 7 8.} /./././.",
"/./././.  [ S.L.I.F.$.d b ( w.s.p.%.) S F 7 5 @     /./././.",
"/./././././.[ r.r.$.#.X.X.n.C.Z.Z.V.b.R h o % % /./././././.",
"/./././././.      = W v.X.b.M.N.N.B.m.@.] r 6 & /./././././.",
"/./././././././././.n B V U Q T Y +.h.k.j.5.J O /./././././.",
"/./././././././././.. X X         8 4.0.j.5.y O /./././././.",
"/./././././././././././././././././.p ] L y /./././././././.",
"/./././././././././././././././././.O O @ O /./././././././."
};
