/* XPM */
static char *result[] = {
/* columns rows colors chars-per-pixel */
"30 32 196 2 ",
"   c #000000",
".  c #000008",
"X  c #1A0000",
"o  c #000014",
"O  c #01001B",
"+  c #270018",
"@  c #000124",
"#  c #0A0F25",
"$  c #00002B",
"%  c #000D2B",
"&  c #0D1127",
"*  c #0E1329",
"=  c #00122C",
"-  c #1D192C",
";  c #181D25",
":  c #000030",
">  c #001A3D",
",  c #1B1F36",
"<  c #391931",
"1  c #1F233B",
"2  c #1B2036",
"3  c #20243C",
"4  c #30243A",
"5  c #4B0000",
"6  c #5F0A0A",
"7  c #620002",
"8  c #7A000A",
"9  c #461E2A",
"0  c #482B37",
"q  c #452939",
"w  c #4D2E3B",
"e  c #522D3C",
"r  c #572B36",
"t  c #54313B",
"y  c #5D363D",
"u  c #5A2C2A",
"i  c #742221",
"p  c #603137",
"a  c #75333D",
"s  c #01004E",
"d  c #000044",
"f  c #000454",
"g  c #000E54",
"h  c #001850",
"j  c #072746",
"k  c #1D2440",
"l  c #002257",
"z  c #002659",
"x  c #003F56",
"c  c #15325B",
"v  c #222640",
"b  c #252945",
"n  c #2E334F",
"m  c #2D3452",
"M  c #2C395C",
"N  c #24365B",
"B  c #353A57",
"V  c #363C5B",
"C  c #3A3F5E",
"Z  c #303450",
"A  c #343E62",
"S  c #522F42",
"D  c #4C3F55",
"F  c #483B47",
"G  c #673A42",
"H  c #773943",
"J  c #3C405F",
"K  c #005165",
"L  c #1B5A6B",
"P  c #3C4262",
"I  c #235466",
"U  c #3D627F",
"Y  c #584447",
"T  c #47435A",
"R  c #674749",
"E  c #73404A",
"W  c #784E4F",
"Q  c #76554F",
"!  c #66535B",
"~  c #795D55",
"^  c #725A5A",
"/  c #735954",
"(  c #714F54",
")  c #7F6056",
"_  c #4E4961",
"`  c #534C63",
"'  c #5C5D6B",
"]  c #485B77",
"[  c #7C4F60",
"{  c #6B5A68",
"}  c #7E5464",
"|  c #5B607C",
" . c #5B707A",
".. c #6E616C",
"X. c #7C6464",
"o. c #7B656C",
"O. c #7E686E",
"+. c #676976",
"@. c #736676",
"#. c #71747B",
"$. c #870000",
"%. c #804C37",
"&. c #873846",
"*. c #8A494E",
"=. c #9A524E",
"-. c #8A4852",
";. c #8F5157",
":. c #9A5452",
">. c #8E4F48",
",. c #A34C41",
"<. c #A15B57",
"1. c #B55C54",
"2. c #B05448",
"3. c #84655A",
"4. c #8C6A5F",
"5. c #886357",
"6. c #BA665D",
"7. c #B96A5A",
"8. c #AB755F",
"9. c #935967",
"0. c #9A5660",
"q. c #8B5968",
"w. c #81686E",
"e. c #8D6A64",
"r. c #936C62",
"t. c #937065",
"y. c #906D7C",
"u. c #8E7274",
"i. c #81727B",
"p. c #917476",
"a. c #A96261",
"s. c #BC6A62",
"d. c #A0767C",
"f. c #BA7A7B",
"g. c #B9736B",
"h. c #C8695D",
"j. c #C8776A",
"k. c #C76E65",
"l. c #AE836E",
"z. c #AE8674",
"x. c #C8816F",
"c. c #D68977",
"v. c #CC8273",
"b. c #36708A",
"n. c #566683",
"m. c #65758D",
"M. c #AA7E84",
"N. c #1491A5",
"B. c #3A96AB",
"V. c #298EA3",
"C. c #4795A8",
"Z. c #6191A5",
"A. c #6CA7B9",
"S. c #7AB8CA",
"D. c #918992",
"F. c #AB8786",
"G. c #B48985",
"H. c #B59191",
"J. c #83A8B7",
"K. c #B2B4BC",
"L. c #CC9C85",
"P. c #D09F8A",
"I. c #D09E85",
"U. c #E39880",
"Y. c #D2A086",
"T. c #D4A38C",
"R. c #DEA58D",
"E. c #DCA992",
"W. c #E7AB8D",
"Q. c #F0B28F",
"!. c #E9AD91",
"~. c #ECB395",
"^. c #EEB699",
"/. c #E7B093",
"(. c #F1B799",
"). c #F3BA9C",
"_. c #FABD9D",
"`. c #F8B795",
"'. c #EABEAB",
"]. c #FFC5A3",
"[. c #FFCDA9",
"{. c #FFD3AE",
"}. c #82BBCC",
"|. c #CBBAC1",
" X c #BCC3CD",
".X c #C4C3CD",
"XX c #CFCED5",
"oX c #CFD1D9",
"OX c #DBD2D6",
"+X c #D5D2DA",
"@X c #D1DEE8",
"#X c #EEEFF6",
"$X c #F1EFF7",
"%X c #F1F2FB",
"&X c #EBF1F9",
"*X c None",
/* pixels */
"*X*X*X*X*X*X*X*X*X*X& * * & & & * & & * * * *X*X*X*X*X*X*X*X",
"*X*X*X*X*X*X*X*X*X*X1 v 3 3 1 1 1 3 3 3 3 3 *X*X*X*X*X*X*X*X",
"*X*X*X*X*X*X*X*Xo , m V V B B B B B B B V n , o *X*X*X*X*X*X",
"*X*X*X*X*X*X*X*X, n V _ J P P J C P P P P C n , *X*X*X*X*X*X",
"*X*X*X*X*X*X# 1 m V V C T A C A C C C P C C V Z 1 # *X*X*X*X",
"*X*X*X*X*X*X# b V _ A C M M V V C C C C C J P V b & *X*X*X*X",
"*X*X*X*X*X*X# v V P P M h z M _ C C C C C J P V v # *X*X*X*X",
"*X*X*X*X*X*X& k N M c _ w.w.` M V P C C C C P B 3 # *X*X*X*X",
"*X*X*X*X*X*X- > h f f { E.E.o.l V C C C C C P B v & *X*X*X*X",
"*X*X*X*X*X*XO F X.u.o.G._._.p.g M C C C C C P B v # *X*X*X*X",
"*X*X*X*X*X*X  ~ P.(.^._.[.).p.g M V C C C A A B v # *X*X*X*X",
"*X*X*X*X*X*X  4.(.[._.~.~.P.o.z N M M V C C _ B v # *X*X*X*X",
"*X*X*X*X*X*X  4.(._.z.^ ^ ! T N l g g z M J P B v # *X*X*X*X",
"*X*X*X*X*X*X  e.).~.^ O Y ! C _ O.u.u.o.` V A B v # *X*X*X*X",
"*X*X*X*X*X*X  t._.^./ Y T.T.{ { T.(.(.T.o.z A V b # *X*X*X*X",
"*X*X*X*X*X*X  5.!.W.Y Q )._.o.{ E.].[.).u.g N Z 1 # *X*X*X*X",
"*X*X*X*X*X*XO W c.l.O Y ~.).{ f a.U.]._.p.f j 2 *X*X*X*X*X*X",
"*X*X*X*X*X*X$ r ,.:.;.l.)._.F.e.g.c.!.P.X.d : o *X*X*X*X*X*X",
"*X*X*X*X*X*X*X*Xo 5.Y._.].].(.^._.W.8.u $ O .       *X*X*X*X",
"*X*X*X*X*X*X*X*XO r.!.]././.`._._.T.F.| ) 5.3.3.t.~ *X*X*X*X",
"*X*X*X*X*X*X@ t =.s.c.j.>.%.7.j.7.H..XOX'.Q././.(.I.~   *X*X",
"*X*X*X*X*X*X@ E s.k.<.;.' #.G.f.&.y..XOX'.`.[.{.{.).t.  *X*X",
"*X*X*X*X*X*X@ E s.6.i @.K.oXOX|.p.&.M.m.~ l.).{.{.).t.  *X*X",
"*X*X*X*X*X*X@ p <.=.   .oX%X&X+XF.8 5 X   Y c.).(.Y.~   *X*X",
"*X*X*X*X*X*X*X*Xt <    .XX$X&X+XM.$.&.a + ; R 3.4.) *X*X*X*X",
"*X*X*X*X*X*X*X*Xw r 5 i. X@X@X XD.q.q.} T j $ o .   *X*X*X*X",
"*X*X*X*X*X*X@ y <.s.,.M.J.S.}.S.A.Z.m.| U ] [ H < @ *X*X*X*X",
"*X*X*X*X*X*X@ G :.s.h.f.D.C.V.N.B.B.b.] n.@.9.-.t $ *X*X*X*X",
"*X*X*X*X*X*X= 4 w *.7.j.z.d.' K L I x T } 9.0.-.S @ *X*X*X*X",
"*X*X*X*X*X*X, % O w :.6.h.,.7         9 H -.-.E q % *X*X*X*X",
"*X*X*X*X*X*X*X*X*X*Xp G G p *X*X*X*X*X*X0 e w q *X*X*X*X*X*X",
"*X*X*X*X*X*X*X*X*X*X$ $ $ @ *X*X*X*X*X*X% % = % *X*X*X*X*X*X"
};
