/* XPM */
static char *result[] = {
/* columns rows colors chars-per-pixel */
"30 32 192 2 ",
"   c black",
".  c #000008",
"X  c #190000",
"o  c #000014",
"O  c #01001B",
"+  c #270018",
"@  c #000124",
"#  c #0A0F25",
"$  c #00002B",
"%  c #000D2B",
"&  c #0D1127",
"*  c #0E1329",
"=  c #00132C",
"-  c #1D192C",
";  c #181C25",
":  c #000031",
">  c #001A3D",
",  c #1B1F36",
"<  c #391931",
"1  c #1F233B",
"2  c #1B2036",
"3  c #20243C",
"4  c #30243A",
"5  c #4B0000",
"6  c #5F0A0A",
"7  c #620003",
"8  c #7A000B",
"9  c #461D2A",
"0  c #482B37",
"q  c #452939",
"w  c #4D2E3B",
"e  c #522D3C",
"r  c #562B35",
"t  c #54313B",
"y  c #5D353D",
"u  c #5B2D2A",
"i  c #742121",
"p  c #603137",
"a  c #75333D",
"s  c #01004E",
"d  c #000044",
"f  c #000454",
"g  c #000F54",
"h  c #001850",
"j  c #072746",
"k  c #1D2440",
"l  c #002257",
"z  c #002659",
"x  c #003F56",
"c  c #14325B",
"v  c #222640",
"b  c #252945",
"n  c #2E334F",
"m  c #2D3452",
"M  c #2C395C",
"N  c #24365B",
"B  c #353A57",
"V  c #363C5B",
"C  c #3A3F5E",
"Z  c #303450",
"A  c #343F62",
"S  c #522F42",
"D  c #4A3D4E",
"F  c #673A42",
"G  c #773943",
"H  c #3C405F",
"J  c #005165",
"K  c #1B5A6B",
"L  c #3C4262",
"P  c #235466",
"I  c #3D627F",
"U  c #584447",
"Y  c #47435A",
"T  c #674749",
"R  c #73404A",
"E  c #784E4F",
"W  c #76554F",
"Q  c #66535B",
"!  c #795D55",
"~  c #725A5A",
"^  c #735954",
"/  c #714F54",
"(  c #7F6056",
")  c #4E4961",
"_  c #534C63",
"`  c #5C5D6B",
"'  c #485B77",
"]  c #7C4F60",
"[  c #6B5A68",
"{  c #7E5465",
"}  c #5B607C",
"|  c #5B707A",
" . c #6E616C",
".. c #7C6464",
"X. c #7B656C",
"o. c #7E686E",
"O. c #676976",
"+. c #736676",
"@. c #71747B",
"#. c #870000",
"$. c #804D37",
"%. c #873846",
"&. c #8A4A4E",
"*. c #9A524E",
"=. c #8A4852",
"-. c #8F5157",
";. c #9A5452",
":. c #8E4F48",
">. c #A34C41",
",. c #A15B57",
"<. c #B55C54",
"1. c #B05448",
"2. c #84655A",
"3. c #8C6A5F",
"4. c #886357",
"5. c #BA665D",
"6. c #B96A5A",
"7. c #AB755F",
"8. c #935967",
"9. c #9A5660",
"0. c #8B5968",
"q. c #81686E",
"w. c #8D6A64",
"e. c #936C62",
"r. c #937065",
"t. c #906D7C",
"y. c #8E7274",
"u. c #81727B",
"i. c #917576",
"p. c #BC6A62",
"a. c #A0767C",
"s. c #BA7A7A",
"d. c #B16B66",
"f. c #C8695C",
"g. c #C8776A",
"h. c #C76E65",
"j. c #AE836E",
"k. c #AE8674",
"l. c #C8816F",
"z. c #D68977",
"x. c #CC8273",
"c. c #36708A",
"v. c #566683",
"b. c #65758D",
"n. c #AA7E84",
"m. c #1491A5",
"M. c #3A96AB",
"N. c #2A8EA3",
"B. c #4795A8",
"V. c #6191A5",
"C. c #6CA7B9",
"Z. c #7AB8CA",
"A. c #918992",
"S. c #AB8787",
"D. c #B48985",
"F. c #B59191",
"G. c #83A8B7",
"H. c #B2B4BC",
"J. c #CC9C85",
"K. c #D19F85",
"L. c #D09F8A",
"P. c #E39880",
"I. c #D4A38C",
"U. c #D9A38A",
"Y. c #DCA992",
"T. c #E7AB8D",
"R. c #F0B28F",
"E. c #E9AD91",
"W. c #ECB395",
"Q. c #EEB699",
"!. c #E7B093",
"~. c #F1B799",
"^. c #F4BA9C",
"/. c #FABD9D",
"(. c #F8B795",
"). c #EABEAB",
"_. c #FFC5A3",
"`. c #FFCDA9",
"'. c #FFD3AE",
"]. c #82BBCC",
"[. c #CBBAC1",
"{. c #BCC3CD",
"}. c #C4C3CD",
"|. c #CFCED5",
" X c #CFD1D9",
".X c #DBD2D6",
"XX c #D5D2DA",
"oX c #D1DEE8",
"OX c #EEEFF6",
"+X c #F1EFF7",
"@X c #EEF2FA",
"#X c None",
/* pixels */
"#X#X#X#X#X#X#X#X#X#X#X#X* * & # & & & & & & * & #X#X#X#X#X#X",
"#X#X#X#X#X#X#X#X#X#X#X#X3 b 3 1 3 3 3 3 3 3 b 3 #X#X#X#X#X#X",
"#X#X#X#X#X#X#X#X#X#Xo , Z V B B B B B B B B V Z , o #X#X#X#X",
"#X#X#X#X#X#X#X#X#X#X, n V L ) A A L L A A A ) C n , #X#X#X#X",
"#X#X#X#X#X#X#X#X# , Z A C L C C D A C H A D A C V Z 3 # #X#X",
"#X#X#X#X#X#X#X#X# b V L C C C C A A A A M M A L L V b # #X#X",
"#X#X#X#X#X#X#X#X# v B A H C C C H A ) M h h M L L B b # #X#X",
"#X#X#X#X#X#X#X#X# v B ) C C C C D A N _ u.q._ c M m 3 & #X#X",
"#X#X#X#X#X#X#X#X# v B L C C C C H B z q.Y.Y.[ s f h > ; #X#X",
"#X#X#X#X#X#X#X#X# v B L C C C C H M g i.^._.D.X.y.X.D O #X#X",
"#X#X#X#X#X#X#X#X# v B L A C C C V M g y.^.`./.Q.Q.L.!   #X#X",
"#X#X#X#X#X#X#X#X# v B L C A V M M N z X.J.W.W./.`.~.w.  #X#X",
"#X#X#X#X#X#X#X#X# v B ) C M l g g z N Y Q ~ ~ k./.~.3.  #X#X",
"#X#X#X#X#X#X#X#X# v B A M _ X.y.y.o.) Y Q U @ ~ W.^.w.  #X#X",
"#X#X#X#X#X#X#X#X# b V A z X.L.^.^.L.[ [ I.I.U W ^.^.e.  #X#X",
"#X#X#X#X#X#X#X#X# 1 n N g y.^.`._.Y.[ o./.~.W U T.E.2.  #X#X",
"#X#X#X#X#X#X#X#X#X#X2 j f i._._.P.,.s  .^.W.T o g.x.E @ #X#X",
"#X#X#X#X#X#X#X#X#X#Xo : d  .J.T.z.s.w.S.^.^.k.W ;.:.r @ #X#X",
"#X#X#X#X#X#X#X#X      . O @ u 7.T./.Q.^._._.^.I.3.o #X#X#X#X",
"#X#X#X#X#X#X#X#X( e.2.4.4...` S.T././.^.E.W./.E.e.O #X#X#X#X",
"#X#X#X#X#X#X  ! K.^.!.T.!.).XX}.F.6.g.f.$.:.l.z.d.*.t @ #X#X",
"#X#X#X#X#X#X  r.^.'.'._.Q._..X{.t.%.n.n.@.` -.<.h.p.R @ #X#X",
"#X#X#X#X#X#X  r.^.'.'.^.j.( u.@.%.n.[. X|.H.+.i 5.p.G @ #X#X",
"#X#X#X#X#X#X  W U.~.W.J.U   X 7 8 S. X@X+X X|   *.,.y @ #X#X",
"#X#X#X#X#X#X#X#X( w.2./ ; + a %.#.S.XX@X+X|.O.  < t #X#X#X#X",
"#X#X#X#X#X#X#X#X  . o $ > Y { 0.0.A.{.oXoX{.@.5 r w #X#X#X#X",
"#X#X#X#X#X#X#X#X@ < G ] ' ' } b.V.C.Z.].Z.G.n.1.6.,.p @ #X#X",
"#X#X#X#X#X#X#X#X@ e &.8.@.v.' c.M.M.m.N.B.A.s.f.5.,.F $ #X#X",
"#X#X#X#X#X#X#X#X% S =.9.8.0.Y x P K J ` a.g.g.p.&.w 4 = #X#X",
"#X#X#X#X#X#X#X#X@ q R =.&.R 9       . 7 $.6.p.;.0 O % - #X#X",
"#X#X#X#X#X#X#X#X#X#Xq w e 0 #X#X#X#X#X#Xy a F F #X#X#X#X#X#X",
"#X#X#X#X#X#X#X#X#X#X% = % @ #X#X#X#X#X#X@ $ $ @ #X#X#X#X#X#X"
};
