/* XPM */
static char *result[] = {
/* columns rows colors chars-per-pixel */
"30 32 189 2 ",
"   c #000000",
".  c #00000F",
"X  c #120000",
"o  c #000014",
"O  c #00001B",
"+  c #0B001B",
"@  c #11001D",
"#  c #380000",
"$  c #000124",
"%  c #0A0F25",
"&  c #000129",
"*  c #000828",
"=  c #110023",
"-  c #0D1127",
";  c #0D132A",
":  c #00132D",
">  c #00033B",
",  c #081E3E",
"<  c #1B1E34",
"1  c #240925",
"2  c #1F233B",
"3  c #20243C",
"4  c #362033",
"5  c #500B19",
"6  c #730000",
"7  c #72001C",
"8  c #671F20",
"9  c #701132",
"0  c #4B2838",
"q  c #5A383B",
"w  c #532831",
"e  c #6E3534",
"r  c #7F423E",
"t  c #00004B",
"y  c #001044",
"u  c #000554",
"i  c #001A51",
"p  c #001755",
"a  c #1D2440",
"s  c #002056",
"d  c #082D56",
"f  c #14325A",
"g  c #252943",
"h  c #232740",
"j  c #2E334F",
"k  c #233349",
"l  c #383448",
"z  c #2D3A5C",
"x  c #2A3554",
"c  c #343956",
"v  c #373D5C",
"b  c #3A3E5D",
"n  c #513F4B",
"m  c #673B43",
"M  c #753948",
"N  c #692A47",
"B  c #3C405F",
"V  c #244056",
"C  c #1F4F62",
"Z  c #065366",
"A  c #3C4262",
"S  c #324A61",
"D  c #365572",
"F  c #56434A",
"G  c #5C4C57",
"H  c #75454C",
"J  c #63534C",
"K  c #72584F",
"L  c #77574B",
"P  c #6D5554",
"I  c #64515A",
"U  c #795C53",
"Y  c #72595A",
"T  c #634550",
"R  c #7C6056",
"E  c #7B615E",
"W  c #4A4A64",
"Q  c #564F65",
"!  c #4A5567",
"~  c #585566",
"^  c #4D5C7A",
"/  c #6D5C69",
"(  c #6F5F74",
")  c #71586A",
"_  c #5A6676",
"`  c #7C656D",
"'  c #786468",
"]  c #786A72",
"[  c #6B6E77",
"{  c #881A2A",
"}  c #87313B",
"|  c #824439",
" . c #903E40",
".. c #914142",
"X. c #8B4853",
"o. c #805D51",
"O. c #93505F",
"+. c #8B414F",
"@. c #A25A58",
"#. c #A2544C",
"$. c #8A635A",
"%. c #8C6A5D",
"&. c #816257",
"*. c #95685F",
"=. c #B2604F",
"-. c #AC675F",
";. c #BB675D",
":. c #825E67",
">. c #955160",
",. c #8D6C60",
"<. c #826A6D",
"1. c #936D62",
"2. c #987467",
"3. c #846B71",
"4. c #886D71",
"5. c #8E7375",
"6. c #927576",
"7. c #997171",
"8. c #A26A68",
"9. c #BA6B66",
"0. c #A17C6B",
"q. c #BE7265",
"w. c #BC7669",
"e. c #BD7B6F",
"r. c #B77A7A",
"t. c #A4747C",
"y. c #CE775F",
"u. c #C97B68",
"i. c #CE7E70",
"p. c #AE8576",
"a. c #CE8779",
"s. c #D18172",
"d. c #D59B7C",
"f. c #E39378",
"g. c #336C86",
"h. c #4A6482",
"j. c #5F7E97",
"k. c #697B91",
"l. c #A47881",
"z. c #2E869C",
"x. c #0591A5",
"c. c #7C8AA8",
"v. c #7CABBD",
"b. c #99818D",
"n. c #AB848B",
"m. c #B58D81",
"M. c #848CA8",
"N. c #B5A8B7",
"B. c #C38C8D",
"V. c #CD9C87",
"C. c #D49E85",
"Z. c #DF9681",
"A. c #D99F97",
"S. c #E69B84",
"D. c #D5A48D",
"F. c #DBA68C",
"G. c #D3A087",
"H. c #DAA791",
"J. c #DDB19F",
"K. c #E6A78D",
"L. c #E5AD92",
"P. c #ECAD91",
"I. c #ECB496",
"U. c #EDB599",
"Y. c #EBB597",
"T. c #F7B798",
"R. c #F4BA9B",
"E. c #FABC9C",
"W. c #F4B794",
"Q. c #FABFA1",
"!. c #ECB5A3",
"~. c #FFC29E",
"^. c #FEC2A1",
"/. c #FFCAA6",
"(. c #FFCDA9",
"). c #FFD0AC",
"_. c #F6CBB4",
"`. c #86BECF",
"'. c #B5BFC9",
"]. c #CBBAC1",
"[. c #BFC3CD",
"{. c #D8D1D6",
"}. c #D9D4DB",
"|. c #C2C1CB",
" X c #F3DCDB",
".X c #D1DEE8",
"XX c #EDEEF6",
"oX c #E9F0F9",
"OX c None",
/* pixels */
"OXOXOXOXOXOXOXOXOXOX- ; ; - % - - - - - ; - OXOXOXOXOXOXOXOX",
"OXOXOXOXOXOXOXOXOXOX2 h 3 3 3 3 3 3 3 3 3 3 OXOXOXOXOXOXOXOX",
"OXOXOXOXOXOXOXOXo 2 j v c c c c c c c c v x < O OXOXOXOXOXOX",
"OXOXOXOXOXOXOXOX< j b A A A A A B A A A A b j < OXOXOXOXOXOX",
"OXOXOXOXOXOX% 2 x b b A b A b b b b B B B b v j 3 % OXOXOXOX",
"OXOXOXOXOXOX% g v A z z b b b b b b b v c z A v g - OXOXOXOX",
"OXOXOXOXOXOX% g v z s p z A b b B b B z p s z v h % OXOXOXOX",
"OXOXOXOXOXOX% a x Q 3.<.W f z z z z f W ] 3.~ x 3 % OXOXOXOX",
"OXOXOXOXOXOX% , i 3.H.D./ t u p p u t / D.H.3.i , % OXOXOXOX",
"OXOXOXOXOXOXO > t 6.E.^.m.` 4.4.4.3.` m.^.E.6.t > O OXOXOXOX",
"OXOXOXOXOXOX  & t 5.R.(.E.Y.Y.L.L.Y.Y.Q.(.R.5.t &   OXOXOXOX",
"OXOXOXOXOXOX&.E z ' V.U.I.R./././.^.E.I.Y.V.' z E &.OXOXOXOX",
"OXOXOXOX  R F.F.` d G Y Y p.I././.U.p.Y Y G d ` F.F.R   OXOX",
"OXOXOXOX  2.~.Q.5.i I F $ P L./.(.L.P $ F I s 5.^.^.2.  OXOX",
"OXOXOXOX  2.^.Q.] Q D.C.F K L.(.).L.P n G.D.Q ` Q.^.2.  OXOX",
"OXOXOXOX  R F.F.:.7.^.R.K n C.E.E.G.q K R.^.7.:.F.F.&.  OXOX",
"OXOXOXOXOXOXR *.@.a.^.U.P   9.i.s.-.  J U./.a.@.1.U OXOXOXOX",
"OXOXOXOXOXOX  +  .u.P.K.0.o.w.i.s.w.$.0.L.P.u...@   OXOXOXOX",
"OXOXOXOXOXOX      e u.Z.L.R.T.T.R.T.R.L.Z.q.| X         OXOX",
"OXOXOXOXOXOXU <.[ ] X.9.K.Q.T.T.T.E.E.K.q.+.Q ! E %.1.U OXOX",
"OXOXOXOX  U d._.{.[.[ 8 *.r.y.y.y.u.a.2.| ) M.N.J.R.R.C.R   ",
"OXOXOXOX  1.W.). X|._   9 >.l.B.B.r.>.9 5 ! c.N.!.~.(.R.,.  ",
"OXOXOXOX  ,.W.~.A.t.F + 9 l.].}.}.].l.9 w l S ` e.S./.R.1.  ",
"OXOXOXOX  %.I.E.f.=.q = 7 n.}.oXoX{.n.9 M 0   # } w.L.F.R   ",
"OXOXOXOX  1.R.)./.F.L   6 n.}.XXoX}.n.{ X.H 4 $ 0 H %.U OXOX",
"OXOXOXOX  U V.R.~.D.E y N b.'..X.X[.l.M X.M 0 * & o     OXOX",
"OXOXOXOXOXOXU 1.%.` _ h._ k.v.`.`.v.j.A l 1 < ; OXOXOXOXOXOX",
"OXOXOXOXOXOX      > D h.^ g.z.x.x.z.k.( T w 4 : OXOXOXOXOXOX",
"OXOXOXOXOXOXOXOXOXOXk c c V C Z Z ~ 8.9.9.@.m $ OXOXOXOXOXOX",
"OXOXOXOXOXOXOXOXOXOX. o o         8 #.9.;.@.q $ OXOXOXOXOXOX",
"OXOXOXOXOXOXOXOXOXOXOXOXOXOXOXOXOXOXq m m m OXOXOXOXOXOXOXOX",
"OXOXOXOXOXOXOXOXOXOXOXOXOXOXOXOXOXOX$ & & & OXOXOXOXOXOXOXOX"
};
