/* XPM */
static char *result[] = {
/* columns rows colors chars-per-pixel */
"30 32 204 2 ",
"   c #000000",
".  c #00000B",
"X  c #0A0009",
"o  c #140001",
"O  c #020012",
"+  c #00011A",
"@  c #0C0018",
"#  c #001516",
"$  c #1D1619",
"%  c #360000",
"&  c #340713",
"*  c #261D18",
"=  c #2F211E",
"-  c #35231D",
";  c #000024",
":  c #0B0D24",
">  c #00012A",
",  c #000D29",
"<  c #0C1025",
"1  c #0D132A",
"2  c #00142F",
"3  c #12142B",
"4  c #18152D",
"5  c #000333",
"6  c #00083C",
"7  c #171C38",
"8  c #1E223A",
"9  c #3B2C2B",
"0  c #362529",
"q  c #21253D",
"w  c #372031",
"e  c #4C091E",
"r  c #7F021F",
"t  c #431A30",
"y  c #6F0029",
"u  c #4B2736",
"i  c #512132",
"p  c #5E3237",
"a  c #463435",
"s  c #662728",
"d  c #692A35",
"f  c #65383C",
"g  c #723439",
"h  c #7F413A",
"j  c #00014A",
"k  c #000F4E",
"l  c #00114C",
"z  c #000051",
"x  c #000954",
"c  c #001D55",
"v  c #182441",
"b  c #002358",
"n  c #042C58",
"m  c #1B3258",
"M  c #1F2F5A",
"N  c #252943",
"B  c #262B45",
"V  c #2D314D",
"C  c #23354E",
"Z  c #2E3452",
"A  c #2D395C",
"S  c #25385A",
"D  c #343956",
"F  c #343B5C",
"G  c #3A3E5D",
"H  c #34374A",
"J  c #5F3740",
"K  c #762D43",
"L  c #753E49",
"P  c #683949",
"I  c #164159",
"U  c #3C405F",
"Y  c #31425B",
"T  c #004E62",
"R  c #005165",
"E  c #3B4160",
"W  c #3C4868",
"Q  c #3E5571",
"!  c #5A4448",
"~  c #5B4A57",
"^  c #634B48",
"/  c #764347",
"(  c #7D5A4D",
")  c #695351",
"_  c #7B5E55",
"`  c #735A5A",
"'  c #715758",
"]  c #6E4E51",
"[  c #7E615C",
"{  c #7A625B",
"}  c #534A62",
"|  c #475668",
" . c #575467",
".. c #455E7C",
"X. c #4B4761",
"o. c #665A69",
"O. c #765D70",
"+. c #59627B",
"@. c #49627F",
"#. c #7A646C",
"$. c #7C6867",
"%. c #746772",
"&. c #6C6C76",
"*. c #850F25",
"=. c #8A3A3D",
"-. c #84453E",
";. c #8E3F40",
":. c #8C4954",
">. c #9C5657",
",. c #8E5059",
"<. c #A15B5A",
"1. c #A0544B",
"2. c #826357",
"3. c #84655A",
"4. c #8B695B",
"5. c #896558",
"6. c #94695D",
"7. c #A5665E",
"8. c #B66758",
"9. c #9A5B65",
"0. c #835C66",
"q. c #836B6D",
"w. c #81676E",
"e. c #946C62",
"r. c #97686D",
"t. c #957165",
"y. c #9C7769",
"u. c #8A6D71",
"i. c #846A73",
"p. c #8C7174",
"a. c #997778",
"s. c #B66B65",
"d. c #A47D6D",
"f. c #BE7366",
"g. c #BB766A",
"h. c #A57879",
"j. c #BF7C70",
"k. c #A56E67",
"l. c #CE765D",
"z. c #C77967",
"x. c #CD7F70",
"c. c #AD8574",
"v. c #D28777",
"b. c #D09B7F",
"n. c #C78B7B",
"m. c #E49579",
"M. c #3B6C86",
"N. c #5D7F97",
"B. c #6D7B90",
"V. c #36889D",
"C. c #3294A8",
"Z. c #4C8A9E",
"A. c #7986A1",
"S. c #7CABBE",
"D. c #99828E",
"F. c #AC858C",
"G. c #AB848A",
"H. c #B88184",
"J. c #BB9184",
"K. c #848AA7",
"L. c #B3A5B3",
"P. c #CD9B83",
"I. c #C99A88",
"U. c #C69787",
"Y. c #D89B84",
"T. c #C79293",
"R. c #D4A38C",
"E. c #DBA68B",
"W. c #D3A187",
"Q. c #DEA898",
"!. c #E5AA8F",
"~. c #ECA98E",
"^. c #EAA48B",
"/. c #E3AE93",
"(. c #E6B396",
"). c #EDB496",
"_. c #ECB69A",
"`. c #EEBA9C",
"'. c #F5B695",
"]. c #F4B698",
"[. c #F4BA9C",
"{. c #FBBC9D",
"}. c #C7B5BD",
"|. c #DCB2A2",
" X c #EAB9A8",
".X c #FBBFA0",
"XX c #FFC29F",
"oX c #FCC2A2",
"OX c #FECAA6",
"+X c #FFCEA9",
"@X c #FFC6A9",
"#X c #FFD2AD",
"$X c #FFD1B8",
"%X c #86BECF",
"&X c #B9BAC3",
"*X c #87C0D0",
"=X c #BEC2CC",
"-X c #D8D2D8",
";X c #D5CED5",
":X c #EDD6D6",
">X c #D1DDE7",
",X c #EBEEF6",
"<X c #EBF1FA",
"1X c None",
/* pixels */
"1X1X1X1X1X1X1X1X1X1X1 < : : : < < < < < 1 < 1X1X1X1X1X1X1X1X",
"1X1X1X1X1X1X1X1X1X1Xq N q N q q q q q q q q 1X1X1X1X1X1X1X1X",
"1X1X1X1X1X1X1X1X+ 8 Z G D D D D D D D D F V 8 O 1X1X1X1X1X1X",
"1X1X1X1X1X1X1X1X7 V G E E E E E E G E X.E G V 7 1X1X1X1X1X1X",
"1X1X1X1X1X1X: 8 Z G G E E E E E E E E E E E G V 8 3 1X1X1X1X",
"1X1X1X1X1X1X: B G E F A G E G G G G E G A F G G B 3 1X1X1X1X",
"1X1X1X1X1X1X: N D F b c A E G G G E E S c b S G B 3 1X1X1X1X",
"1X1X1X1X1X1X: v S  .w.w.X.M m S m m n } w.i. .M v 1 1X1X1X1X",
"1X1X1X1X1X1X< 6 b u.R.R.o.j z c c x j #.R.R.u.k v 1 1X1X1X1X",
"1X1X1X1X1X1X. 5 j a.[.oXJ.p.p.p.u.u.u.U.oX[.a.j 5 + 1X1X1X1X",
"1X1X1X1X1X1X$ 5 l a.`.+X[.(.(.Q././.(.[.OX(.a.j 7 4 1X1X1X1X",
"1X1X1X1X1X1X2.` U #.I.).).[.XX+XOX@X[._.).I.#.A _ 3.1X1X1X1X",
"1X1X1X1X0 { E.R.q.m ~ ` ` c.).+XOX).c._ ` ~ D $.E.W.5.  1X1X",
"1X1X1X1X9 t.oX[.a.n ~ ) : q.!.+XOX/.' 6 ~ ~ D p.oXoXy.  1X1X",
"1X1X1X1X9 y.oX[.p.o.U.P.p { !.#X+X).] ] P.I.O.%.oX.Xd.  1X1X",
"1X1X1X1X9 3.E.W.u.d.[.[.) ! b.'.].P.a 2.(.[.h.0.E.R.4.  1X1X",
"1X1X1X1X1X1X5.6.>.v.{.].] t 8.v.v.s.@ { (..Xv.>.e.3.1X1X1X1X",
"1X1X1X1X1X1X  & :.x.~.~.d.e.g.x.x.g.5.c.!.^.z.;.@   1X1X1X1X",
"1X1X1X1X= = * # & -.f.Y.!.).].].'.[.).!.Y.z./ # * * 1X1X1X1X",
"1X1X1X1X2.t.4.{ | ~ :.z.!.{.].'.'.'.XX^.f.,.%.&.q.2.1X1X1X1X",
"1X1X  _ P.[.).|.L.K.O.-.k.j.z.z.l.z.x.e.d %.&X-XoXb.( . 1X1X",
"1X1X  t.[.+X{. XL.A. .e K 9.H.T.T.H.9.d   &.&X:X$X).6.. 1X1X",
"1X1X  y.[.OX^.x.q.Q H i y a.}.-X;X}.h.d   ! G.Q.@X(.t.  1X1X",
"1X1X  3.I.!.g.=.%   u L r F.-X<X,X-XF.g o f 8.m.oX_.t.  1X1X",
"1X1X1X1X3.e./ u @ w L :.*.F.-X<X,X;XF.g   ( W.XX+X`.t.  1X1X",
"1X1X1X1X    + ; , u L :.K D.&X>X>X;XD.P 6 $.E.[.[.P.{   1X1X",
"1X1X1X1X1X1X1X1X3 4 4 V W N.S.%X%XS.B.+...+.$.4.e.{ 1X1X1X1X",
"1X1X1X1X1X1X1X1X2 w d ] #.B.Z.C.C.V.M.....Q V - 0 0 1X1X1X1X",
"1X1X1X1X1X1X1X1X> J <.s.g.r. .R T T I S Y C 1X1X1X1X1X1X1X1X",
"1X1X1X1X1X1X1X1X; f <.8.8.1.s     o X O O O 1X1X1X1X1X1X1X1X",
"1X1X1X1X1X1X1X1X1X1Xf / L f 1X1X1X1X1X1X1X1X1X1X1X1X1X1X1X1X",
"1X1X1X1X1X1X1X1X1X1X; > > ; 1X1X1X1X1X1X1X1X1X1X1X1X1X1X1X1X"
};
