/* XPM */
static char *result[] = {
/* columns rows colors chars-per-pixel */
"30 32 175 2 ",
"   c #000001",
".  c #00000C",
"X  c #120007",
"o  c #000014",
"O  c #00001D",
"+  c #3A0016",
"@  c #000224",
"#  c #0A0F25",
"$  c #000129",
"%  c #000B2C",
"&  c #000A27",
"*  c #0D1127",
"=  c #01122C",
"-  c #0E1329",
";  c #1A192D",
":  c #00003B",
">  c #000C30",
",  c #031636",
"<  c #1A1F36",
"1  c #2D0026",
"2  c #2A1E31",
"3  c #271830",
"4  c #361736",
"5  c #371829",
"6  c #1F233B",
"7  c #20243C",
"8  c #282139",
"9  c #342C36",
"0  c #3E2739",
"q  c #5A171C",
"w  c #401F35",
"e  c #6A0928",
"r  c #44202F",
"t  c #4A2135",
"y  c #4A2B3C",
"u  c #492936",
"i  c #5B2E39",
"p  c #433238",
"a  c #5B343C",
"s  c #7E2235",
"d  c #000049",
"f  c #001346",
"g  c #000554",
"h  c #000E54",
"j  c #001850",
"k  c #072847",
"l  c #1D2440",
"z  c #0D364E",
"x  c #002257",
"c  c #002659",
"v  c #003657",
"b  c #15325B",
"n  c #222640",
"m  c #252945",
"M  c #2E334F",
"N  c #26364F",
"B  c #2E3452",
"V  c #2C395C",
"C  c #24365B",
"Z  c #353A57",
"A  c #363C5B",
"S  c #3A3F5E",
"D  c #35394C",
"F  c #343E62",
"G  c #4C2E41",
"H  c #522D41",
"J  c #453A4A",
"K  c #4B3654",
"L  c #6A3D45",
"P  c #623645",
"I  c #793A49",
"U  c #004259",
"Y  c #2C4359",
"T  c #3C405F",
"R  c #00586C",
"E  c #3C4262",
"W  c #27596A",
"Q  c #2F5470",
"!  c #3D5878",
"~  c #534145",
"^  c #5A464A",
"/  c #474258",
"(  c #564C52",
")  c #644748",
"_  c #7D454F",
"`  c #75474A",
"'  c #6E534C",
"]  c #7F4753",
"[  c #695456",
"{  c #765A53",
"}  c #795D56",
"|  c #72595A",
" . c #6D4F50",
".. c #7D6358",
"X. c #4E4961",
"o. c #534C63",
"O. c #475B77",
"+. c #6B5A66",
"@. c #6C5D6A",
"#. c #685864",
"$. c #40607F",
"%. c #7C656C",
"&. c #7E686E",
"*. c #7F6A72",
"=. c #7C747A",
"-. c #80444F",
";. c #994C4E",
":. c #825B4A",
">. c #814550",
",. c #8A4450",
"<. c #805F51",
"1. c #9B5653",
"2. c #B35B50",
"3. c #856255",
"4. c #8D6B5F",
"5. c #87645B",
"6. c #B4655E",
"7. c #985F68",
"8. c #8E6C61",
"9. c #81686E",
"0. c #947264",
"q. c #8C7274",
"w. c #8D767E",
"e. c #957375",
"r. c #AC6563",
"t. c #B26A66",
"y. c #A27A68",
"u. c #B37979",
"i. c #CD6A5C",
"p. c #CE7267",
"a. c #CA786C",
"s. c #B18878",
"d. c #CB8172",
"f. c #D98F7B",
"g. c #E2977F",
"h. c #3D6E88",
"j. c #476481",
"k. c #49728B",
"l. c #9C7B83",
"z. c #A87F87",
"x. c #3E8EA3",
"c. c #2A9FB4",
"v. c #399DB1",
"b. c #6C8F9F",
"n. c #4B92A6",
"m. c #409DB0",
"M. c #7393A2",
"N. c #46A0B3",
"B. c #B38B81",
"V. c #CE9D86",
"C. c #D09F8A",
"Z. c #D09D84",
"A. c #D3A186",
"S. c #D5A48E",
"D. c #DFA58D",
"F. c #DAA790",
"G. c #E4AC8F",
"H. c #E3A78C",
"J. c #F0B18D",
"K. c #E9AD91",
"L. c #E6AF91",
"P. c #EDB496",
"I. c #EEB699",
"U. c #F2B79A",
"Y. c #F3BA9B",
"T. c #F8BD9D",
"R. c #F6B793",
"E. c #E9BDAA",
"W. c #FABFA2",
"Q. c #FFC4A2",
"!. c #FFCDA9",
"~. c #FFD2AE",
"^. c #C5C2CD",
"/. c #DED4D5",
"(. c None",
/* pixels */
"(.(.(.(.(.(.(.(.(.(.* - - * * * * * * - - - (.(.(.(.(.(.(.(.",
"(.(.(.(.(.(.(.(.(.(.6 n 7 7 7 6 6 7 6 7 n 6 (.(.(.(.(.(.(.(.",
"(.(.(.(.(.(.(.(.o < M S Z Z Z Z Z Z Z Z A D < o (.(.(.(.(.(.",
"(.(.(.(.(.(.(.(.< M S E E E E E E E E E E A M < (.(.(.(.(.(.",
"(.(.(.(.(.(.# 6 B A F S S S F F S S F T T S S B 7 # (.(.(.(.",
"(.(.(.(.(.(.# m A X.S S A V S A S S S S S T E A m # (.(.(.(.",
"(.(.(.(.(.(.# n Z E E V j x V X.S S S S S T E Z n # (.(.(.(.",
"(.(.(.(.(.(.* l C V b X.9.9.o.V A S S T S S E Z n # (.(.(.(.",
"(.(.(.(.(.(.; , j g d @.S.F.9.x A S S S S S E Z n # (.(.(.(.",
"(.(.(.(.(.(.O J %.q.&.B.Q.W.e.h V S S S S S F Z n # (.(.(.(.",
"(.(.(.(.(.(.  } C.U.U.T.!.U.q.h V S F S S F F Z n # (.(.(.(.",
"(.(.(.(.(.(.  4.U.!.T.P.P.C.%.c C V V A F / X.Z 7 # (.(.(.(.",
"(.(.(.(.(.(.  4.U.T.s.| | [ X.b x h h x V S E Z n # (.(.(.(.",
"(.(.(.(.(.(.  4.Y.I.} O ( [ K o.&.q.q.&.o.A F Z n # (.(.(.(.",
"(.(.(.(.(.(.  8.T.Y.{ J C.S.+.@.S.T.U.C.%.c F S m # (.(.(.(.",
"(.(.(.(.(.(.  5.G.H.) { T.T.9.+.F.Q.!.Y.q.h C B 6 # (.(.(.(.",
"(.(.(.(.(.(.O ] d.a.t ..Y.Q.q.K r.g.Q.Y.e.g k < (.(.(.(.(.(.",
"(.(.(.(.(.(.& i ;.;.1 ' A.S.+.K t.f.K.S.%.d , o (.(.(.(.(.(.",
"(.(.(.(.(.(.(.(.a H 3 9 ) ~ .  .K.U.B.#.D $ (.(.(.(.(.(.(.(.",
"(.(.(.(.(.(.(.(.@ & & 9 ^ ' ' y.G.S.#.: 4 u (.(.(.(.(.(.(.(.",
"(.(.(.(.(.(.(.(.(.(.  } Z.P.P.A.0.p X + I _ y & (.(.(.(.(.(.",
"(.(.(.(.(.(.(.(.(.(.  8.U.~.~.U.y.( =.w.7.,.y & (.(.(.(.(.(.",
"(.(.(.(.(.(.(.(.(.(.  8.U.~.~.Q.R.E./.^.z.s t & (.(.(.(.(.(.",
"(.(.(.(.(.(.(.(.(.(.  } Z.P.L.L.J.E./.^.l.e 4 @ (.(.(.(.(.(.",
"(.(.(.(.(.(.(.(.& & $ p ' 3.<.:.:.3.q.*. .r % @ (.(.(.(.(.(.",
"(.(.(.(.(.(.(.(.y y 2 % : d : f v U U K ) I L a (.(.(.(.(.(.",
"(.(.(.(.(.(.@ y >._ 5 k Q $.O.h.x.m.v.b.e.2.6.1.a @ (.(.(.(.",
"(.(.(.(.(.(.% G _ _ i J O.$.O.k.n.m.c.M.u.i.p.6.` @ (.(.(.(.",
"(.(.(.(.(.(.= 8 0 P >.] J z N Y Q W R @.t.p.p.6.L @ (.(.(.(.",
"(.(.(.(.(.(.< = @ u ] >.t . o         q 1.r.6.1.a @ (.(.(.(.",
"(.(.(.(.(.(.(.(.(.(.y y 8 & (.(.(.(.(.(.a L L a (.(.(.(.(.(.",
"(.(.(.(.(.(.(.(.(.(.& = , ; (.(.(.(.(.(.@ $ $ @ (.(.(.(.(.(."
};
