/* XPM */
static char *result[] = {
/* columns rows colors chars-per-pixel */
"30 30 200 2 ",
"   c black",
".  c #050007",
"X  c #050008",
"o  c #00001E",
"O  c #00001F",
"+  c #000023",
"@  c #000024",
"#  c #000025",
"$  c #000026",
"%  c #000126",
"&  c #000027",
"*  c #000127",
"=  c #000226",
"-  c #0D0F25",
";  c #000028",
":  c #000128",
">  c #0F002E",
",  c #0D0F2E",
"<  c #0E0F2E",
"1  c #051128",
"2  c #0D172C",
"3  c #151B31",
"4  c #181B30",
"5  c #311838",
"6  c #112D3E",
"7  c #342030",
"8  c #372232",
"9  c #392333",
"0  c #392432",
"q  c #392334",
"w  c #3A2335",
"e  c #3A2435",
"r  c #3D2637",
"t  c #46233C",
"y  c #562C3C",
"u  c #4D303C",
"i  c #4E303C",
"p  c #5D363D",
"a  c #744F3D",
"s  c #744F3F",
"d  c #333848",
"f  c #33384A",
"g  c #3C3E50",
"h  c #3D3F50",
"j  c #473746",
"k  c #473747",
"l  c #5A3741",
"z  c #622C48",
"x  c #622D48",
"c  c #673A41",
"v  c #693D41",
"b  c #6B3D41",
"n  c #6C3D41",
"m  c #6C3E41",
"M  c #6D3E44",
"N  c #6E3F44",
"B  c #6F3F44",
"V  c #454857",
"C  c #484955",
"Z  c #484A56",
"A  c #56575F",
"S  c #73424F",
"D  c #555761",
"F  c #565762",
"G  c #890E1C",
"H  c #813E54",
"J  c #813F54",
"K  c #8D4F4E",
"L  c #8E4F4E",
"P  c #895A49",
"I  c #814753",
"U  c #854755",
"Y  c #864755",
"T  c #874955",
"R  c #884955",
"E  c #894A55",
"W  c #894956",
"Q  c #8A4A56",
"!  c #8B4A56",
"~  c #8B4B56",
"^  c #8C4B56",
"/  c #8D4C56",
"(  c #8E4C57",
")  c #8E4D57",
"_  c #8F4D57",
"`  c #904D57",
"'  c #904E58",
"]  c #914E58",
"[  c #924F58",
"{  c #934F58",
"}  c #995652",
"|  c #985653",
" . c #9B5754",
".. c #9B5755",
"X. c #9B5854",
"o. c #9B5855",
"O. c #9C5854",
"+. c #9C5855",
"@. c #9D5955",
"#. c #935058",
"$. c #945058",
"%. c #96505A",
"&. c #9F535B",
"*. c #95585C",
"=. c #A1545C",
"-. c #A1555C",
";. c #A3565D",
":. c #A05B58",
">. c #A2595C",
",. c #A45A5C",
"<. c #A55A5C",
"1. c #A65A5C",
"2. c #A85C5D",
"3. c #AD5D5C",
"4. c #AD5E5C",
"5. c #916349",
"6. c #9F6D4C",
"7. c #A2704C",
"8. c #A8704F",
"9. c #B5675D",
"0. c #B4655E",
"q. c #B5655E",
"w. c #B4665E",
"e. c #B5665E",
"r. c #B6675F",
"t. c #A87150",
"y. c #A97450",
"u. c #A97451",
"i. c #AA7451",
"p. c #AA7552",
"a. c #B67B56",
"s. c #BD7A5D",
"d. c #BE7A5D",
"f. c #864D62",
"g. c #B76162",
"h. c #B66262",
"j. c #B56561",
"k. c #B66561",
"l. c #B76561",
"z. c #B76660",
"x. c #B86760",
"c. c #BC6962",
"v. c #BD6962",
"b. c #BC6A62",
"n. c #BD6A62",
"m. c #BE6A62",
"M. c #BF6A63",
"N. c #C06D63",
"B. c #C16E63",
"V. c #C06A64",
"C. c #C86F66",
"Z. c #C86F67",
"A. c #C87165",
"S. c #C98065",
"D. c #E39568",
"F. c #EE9C6C",
"G. c #EF9D6D",
"H. c #F09D6E",
"J. c #F19D6E",
"K. c #F19E6E",
"L. c #F19E6F",
"P. c #ECA268",
"I. c #F7AA6C",
"U. c #F7AA6D",
"Y. c #F9AB6D",
"T. c #F9AA6E",
"R. c #F9AB6E",
"E. c #FBAA6F",
"W. c #FBAB6F",
"Q. c #F9AC6E",
"!. c #F5A370",
"~. c #FFB272",
"^. c #647089",
"/. c #7D7893",
"(. c #A08392",
"). c #A28394",
"_. c #8488A3",
"`. c #959CB4",
"'. c #9B9EB1",
"]. c #9B9FBD",
"[. c #9EA2BF",
"{. c #9EA2C0",
"}. c #A0A4C2",
"|. c #AFAEC6",
" X c #B6B9C6",
".X c #BABBC4",
"XX c #B8BCD0",
"oX c #BBBED2",
"OX c #BDC0D4",
"+X c #BDC1D5",
"@X c #CCC0C7",
"#X c #D3CDD5",
"$X c #D3CDD6",
"%X c #DADAE6",
"&X c #DADAE7",
"*X c #DCDFE9",
"=X c #DFE1EB",
"-X c #DFE2EB",
";X c #E1E2EB",
":X c None",
/* pixels */
":X:X:X:X:X:X:X:X:X:X:X4 3 2 1 1 2 3 4 :X:X:X:X:X:X:X:X:X:X:X",
":X:X:X:X:X:X:X:X:X:X:X- , 5 t t 5 < - :X:X:X:X:X:X:X:X:X:X:X",
":X:X# # # # # # # @ # o > z J H x > o # @ # # # # # # # :X:X",
":Xa 6.a.p.y.u.u.u.i.y.7.8.d.S.S.s.t.7.y.i.u.u.u.y.p.a.6.s :X",
"+ 5.P.~.Q.Y.Y.Y.Y.Y.Y.I.U.R.W.E.T.U.I.Y.Y.Y.Y.Y.Y.Q.~.P.5.+ ",
"& P D.!.L.H.H.J.H.H.H.J.K.G.F.F.G.J.K.H.H.J.H.H.H.L.!.D.P & ",
"% v 9.A.B.N.N.N.N.N.N.N.N.N.N.N.N.N.N.N.N.N.N.N.N.B.A.9.v $ ",
"% c 4.h.;.&.-.=.=.=.=.=.=.-.=.=.-.=.=.=.=.=.=.-.&.;.g.3.c % ",
"# n q.k.#.W ) ) ( ) ) ( ) ) ( ) ) ( ) ) ( ) ) ) W #.k.q.m # ",
"$ n e.k.] Y ^ ^ ^ ^ ^ ^ ^ ^ ^ ^ ^ ^ ^ ^ ^ ^ ^ ^ Y ] k.e.b $ ",
"$ b w.l.$.Q _ _ _ _ _ _ _ _ _ _ _ _ _ _ _ _ _ _ Q $.l.w.b $ ",
"$ b e.l.$.E _ _ _ _ _ _ _ _ _ _ _ _ _ _ _ _ _ _ E $.l.e.b $ ",
"$ b e.l.$.E _ _ _ _ _ _ _ _ _ _ _ _ _ _ _ _ _ _ E $.l.e.b $ ",
"$ b e.l.$.E _ _ _ _ _ _ _ _ _ _ _ _ _ _ _ _ _ _ E $.l.e.b $ ",
"$ b e.l.$.E _ _ _ _ _ _ _ _ _ _ _ _ _ _ _ _ _ _ E $.l.e.b $ ",
"$ b e.l.$.Q ` _ _ _ _ _ _ _ _ _ _ _ _ _ _ _ _ ` Q $.l.e.b $ ",
"$ b e.k.[ R / / / / / / / / / / / / / / / / / / T { k.e.n $ ",
"$ b 0.j.' U ~ ! Q Q ! Q Q Q Q Q Q Q Q ! Q Q ! ~ U ' j.0.b $ ",
": N x.V.2.>.1.1.<.<.1.1.<.,.,.,.,.<.<.1.1.<.1.1.>.2.V.x.B ; ",
"* M z.Z.M.n.m.m.m.m.m.n.n.n.v.c.b.n.n.m.m.m.m.m.n.M.C.r.M * ",
"= p L :.+. .o.X.o.+...| } O.@.@.O.} | ..+.o.X.o. .+.:.K p = ",
":X:X8 r e q q q q w 9 7 0 u l l i 0 7 9 w q q q q e r 8 :X:X",
":X:X:XO o :X:Xo :X:X:X  . y S S y X   :X:X:Xo :X:Xo O :X:X:X",
":X:X:X:X:X:X:X:X:X:X:X6 k I %.%.I j 6 :X:X:X:X:X:X:X:X:X:X:X",
":X:X:X:X:X:X:X:X:X:Xf ^./.f.G G f./.^.d :X:X:X:X:X:X:X:X:X:X",
":X:X:X:X:X:X:X:X:X  V `.|.(.*.*.).|.`.V   :X:X:X:X:X:X:X:X:X",
":X:X:X:X:X:X:X:X:X  D  X%X#X@X@X$X&X XF   :X:X:X:X:X:X:X:X:X",
":X:X:X:X:X:X:X:X:X  A .X;X=X*X*X-X;X.XA   :X:X:X:X:X:X:X:X:X",
":X:X:X:X:X:X:X:X:X  C '.+XoXXXXXoXOX'.Z   :X:X:X:X:X:X:X:X:X",
":X:X:X:X:X:X:X:X:X  g _.}.[.].].{.}._.h   :X:X:X:X:X:X:X:X:X"
};
