/* XPM */
static char *result[] = {
/* columns rows colors chars-per-pixel */
"50 50 101 2 ",
"   c #010000",
".  c #090001",
"X  c #0F030B",
"o  c #10050F",
"O  c #11080F",
"+  c #0A0A19",
"@  c #110710",
"#  c #110A15",
"$  c #130F1E",
"%  c #14101F",
"&  c #0E0820",
"*  c #161221",
"=  c #181323",
"-  c #1B192E",
";  c #1D1D35",
":  c #211F37",
">  c #1F2138",
",  c #212036",
"<  c #23243C",
"1  c #26283E",
"2  c #29293F",
"3  c #252740",
"4  c #262944",
"5  c #2A2B45",
"6  c #242749",
"7  c #262948",
"8  c #2B2E4B",
"9  c #2F314C",
"0  c #32344E",
"q  c #2E3254",
"w  c #323655",
"e  c #363852",
"r  c #393B57",
"t  c #313658",
"y  c #33395C",
"u  c #3A3D5D",
"i  c #363D64",
"p  c #383F63",
"a  c #3B4167",
"s  c #3C446D",
"d  c #3D4671",
"f  c #3F4872",
"g  c #45475E",
"h  c #454867",
"j  c #4E4F62",
"k  c #41476C",
"l  c #454A6C",
"z  c #484C6A",
"x  c #535465",
"c  c #404771",
"v  c #414A75",
"b  c #484E72",
"n  c #454D79",
"m  c #4D5275",
"M  c #475079",
"N  c #4A527B",
"B  c #515678",
"V  c #555A7E",
"C  c #4D5583",
"Z  c #4F5884",
"A  c #545B84",
"S  c #565E8A",
"D  c #585E88",
"F  c #5C6186",
"G  c #5C648D",
"H  c #5E6691",
"J  c #60668A",
"K  c #686C8A",
"L  c #606791",
"P  c #636A94",
"I  c #666D99",
"U  c #686F99",
"Y  c #6B719B",
"T  c #777A93",
"R  c #70779C",
"E  c #747A9E",
"W  c #6E75A0",
"Q  c #767CA2",
"!  c #797FA4",
"~  c #7F8197",
"^  c #7F8198",
"/  c #7D83A5",
"(  c #7781A9",
")  c #7E85A9",
"_  c #81849A",
"`  c #8187AA",
"'  c #858AAC",
"]  c #898EAE",
"[  c #8E94B6",
"{  c #9196B6",
"}  c #9499B6",
"|  c #9096B8",
" . c #979BB9",
".. c #9A9EB9",
"X. c #9DA2BE",
"o. c #9FA4C1",
"O. c #A3A7C2",
"+. c #A5A9C4",
"@. c #A9ACC6",
"#. c #A9ADC8",
"$. c None",
/* pixels */
"$.$.$.$.$.$.$.$.$.$.$.$.$.                                      .         $.$.$.$.$.$.$.$.$.$.$.$.$.",
"$.$.$.$.$.$.$.$.$.$.$.$.$.= * = * * $ $ % % % % $ $ $ $ $ % $ $ $ % * * * $.$.$.$.$.$.$.$.$.$.$.$.$.",
"$.$.$.$.$.$.$.$.$.$.$.$.$.4 9 r h j x x x x x j x x x x x x x x j h r 8 4 $.$.$.$.$.$.$.$.$.$.$.$.$.",
"$.$.$.$.$.$.$.$.$.$.$.  ; t s V K T ^ _ ^ ^ ^ ~ ^ ^ T _ ^ _ _ ^ T K V k t ;   $.$.$.$.$.$.$.$.$.$.$.",
"$.$.$.$.$.$.$.$.$.$.  . 3 a A Y / { X.X.X. . .X... ... .X...X.X.{ / U A k 4 .   $.$.$.$.$.$.$.$.$.$.",
"$.$.$.$.$.$.$.$.$.$.& 3 h D U ) } X.#.#.@.+.#.+.@.@.@.@.+.#.#.+.O.} ) U D z 3 + $.$.$.$.$.$.$.$.$.$.",
"$.$.$.$.$.$.$.$.$.; 6 h F E ` { X.+.@.#.@.@.@.#.@.@.@.#.#.@.#.@.O...{ ` R D k 6 ; $.$.$.$.$.$.$.$.$.",
"$.$.$.$.$.$.$.  + 7 i A Y ' { o.o.+.+.+.+.+.+.+.+.+.+.+.+.+.+.+.O.O.X.} ' Y A p 8 +   $.$.$.$.$.$.$.",
"$.$.$.$.$.$.$.+ 3 k A U ) | o.+.+.O.O.O.O.O.O.O.O.O.O.O.O.O.O.O.+.+.+.X.{ ` U A h 2 + $.$.$.$.$.$.$.",
"$.$.$.$.$.$.; 8 k J R ` | ..O.@.+.O.O.O.O.O.O.O.O.O.O.+.O.O.O.O.+.+.@.+...{ ` R J k 8 ; $.$.$.$.$.$.",
"$.$.$.$.  & 6 a A R ` } X.O.O.+.+.O.O.O.O.O.+.+.O.O.O.o.O.O.O.O.O.+.+.O.O...} ` R A p 6 &   $.$.$.$.",
"$.$.$.    1 h A U ` { X.+.+.+.O.O.O.O.O.O.O.X.+.O.O.O.+.O.O.O.O.O.O.O.O.O.+.O.| ` I A k 3     $.$.$.",
"$.$.$.< 5 z F Y ` { ..+.#.+.O.O.O.O.O.O.O.O.O.O.O.O.O.O.+.O.O.O.O.O.O.+.+.@.+.X.{ ) Y J z 5 , $.$.$.",
"  * 5 u z J E ' { ..O.+.+.+.O.O.O.O.+.O.O.O.O.O.O.O.O.O.o.+.O.O.O.O.O.+.+.+.+.O...} ' E J b u 9 *   ",
"  * 0 b D Y ' { O.O.O.O.+.+.O.O.O.O.O.O.O.O.O.+.O.O.O.O.X.+.O.O.O.O.O.O.+.O.O.O.+.X.{ ` Y S b 0 *   ",
"  * e m P Q [ o.+.@.+.O.O.O.O.O.O.O.O.O.O.O.O.+.X.+.O.+.+.O.O.O.O.O.O.O.O.O.O.+.@.+.X.{ Q L m w *   ",
"  * r N P ( [ O.@.@.+.+.O.O.O.O.O.O.O.O.O.O.O.O.O.O.O.O.O.O.O.O.O.O.O.O.O.+.O.@.#.#.O.{ ( P N r =   ",
"  * e m H ! [ X.@.@.+.O.O.O.O.O.O.O.O.O.O.O.O.O.O.O.O.O.O.O.O.O.O.O.O.O.O.O.O.@.#.#.X.[ ! L m w %   ",
"  * 0 z G Q '  .+.+.+.+.O.O.O.O.O.O.O.O.O.O.O.+.O.O.O.O.O.O.O.+.O.O.O.O.O.O.O.O.+.O. .' R G b 0 %   ",
"  % 8 s A I ( ] } X.X.+.+.+.O.O.O.+.O.O.O.O.O.O.+.O.O.O.O.O.O.O.O.O.O.O.@.O.O.O.X.} ] ! I A k 8 *   ",
". * 5 a f G P ( ]  .X.O.@.+.+.O.O.O.O.O.O.O.O.O.O.O.O.O.O.O.O.O.O.O.O.O.O.@.@...{ ' Q I G v i 6 * . ",
"X * 3 q s C Z H R '  .O.@.+.O.O.O.O.O.O.O.O.O.O.O.O.O.O.O.O.O.O.O.O.O.O.@.@.O. .' R H Z N s t < * X ",
"# * > q a f M C H E '  .X.O.O.+.+.O.O.O.O.O.O.O.O.O.O.O.O.+.O.O.O.O.O.O.O.X. .' Q G Z C v i t < * @ ",
"o * 3 t s f f M A P E ' { X.O.@.+.+.O.O.O.O.O.O.O.O.O.O.O.O.O.O.O.@.#.O...{ ' Q P A v v v p y < * @ ",
"o * 3 t s n f f n A H W ) } X.@.+.O.+.+.O.O.O.O.O.+.O.O.O.+.O.O.O.@.@.O.{ ` Y P S n f f v s y 3 * O ",
"o * 3 y s f f d d C C H W ] X.X.+.O.O.+.+.O.O.O.O.O.O.+.O.O.+.O.O.O.O. .] E G Z n d d f v s y 3 * o ",
"o * 3 y f f f s f f f Z P ( ]  .X.O.+.@.+.+.+.+.+.+.+.+.+.+.+.+.O...} ] Q P A v f f d f v k y < % o ",
"o * 3 y f f f f f f f n F H R ) { X.+.@.+.+.+.+.+.+.+.+.+.@.@.+.O.| ` R P A n d f f f v v d y 3 * @ ",
"o * < y d n f f f f d d M Z H W '  .O.+.O.O.O.O.O.O.O.X.O.O.+.O. .' R G Z v d d f f v v v c y 3 % o ",
"o * 3 y s v f n f f s s f f C H T ] }  .} } { { { } { } } }  .} ] E L C n f s s d f v v v s y 3 % o ",
"o * 3 y s n n f f f f f f f M A P ^ ` ` / ` ` ` / ` ` ) ) ` ` ` Q I A n v f d f f f v v v c y 3 = @ ",
"o % 3 y s v n f f f f f f f d M F P Y R R Y U Y Y U Y Y Y Y R Y P S n f f f v f v v v v v s t 3 % @ ",
"@ % 6 y d v v v f v f v d s s f C G P I P H P H I H I H P I I H S Z v i s d v d v c v v n d y 4 = o ",
"@ = 6 u f v n v c f v f d s s v C H I I I I I P P P H I P I I I H C n d d d f v c v v n v f y 4 = @ ",
"@ = 3 u f n n v v f v v f d d M A P U Y I U I I I U I I U U Y U H A n d s d v c v f v v v d y 4 = O ",
"@ % 1 t a f f c f v f v f s f v A J Y Y I I Y I U U U Y U U Y U P A n d d f f v f v v f f s t 4 $ O ",
"X % < 8 w p s c v n v f f s d M A P U Y U U U U U U U U U Y Y U P A n s s c c v M v f s a w 9 > * o ",
"$.$.$.; , q p d n n v v f s f v A L Y Y U U U U U U U U U U W U P A n d d c v v n v d a 9 , ; $.$.$.",
"$.$.$.. # < q a f v v v f s d n A P U Y Y U U U U U U Y U U Y U H A n d d d v v v c a q , # . $.$.$.",
"$.$.$.$.  = 4 w a s c v f f s M A P U W U U U U U U I I U Y Y U L A n c d v v c d a t 4 =   $.$.$.$.",
"$.$.$.$.$.$.; 1 q a s v n f f n A P U Y Y U U U U U U U Y Y Y Y H A n d f n v d a q 1 ; $.$.$.$.$.$.",
"$.$.$.$.$.$.$.$ ; q a v v f d n A L U Y Y U U U U U U U U Y Y Y P A n d f v f a q ; $ $.$.$.$.$.$.$.",
"$.$.$.$.$.$.$.  $ 1 w a s d s M S P Y Y Y Y U U Y U U U Y Y Y Y P A M f d d a t < $   $.$.$.$.$.$.$.",
"$.$.$.$.$.$.$.$.$.; 4 q i s d N D I W W Y Y W Y Y W W Y Y Y Y Y I S M d a i w 7 > $.$.$.$.$.$.$.$.$.",
"$.$.$.$.$.$.$.$.$.$.= < 8 i s M D P Y Y Y Y Y Y Y Y Y W Y Y W Y I S N d y 8 : = $.$.$.$.$.$.$.$.$.$.",
"$.$.$.$.$.$.$.$.$.$.  # ; q i v A G P I P P P L P P P H P P I P G C v p q ; #   $.$.$.$.$.$.$.$.$.$.",
"$.$.$.$.$.$.$.$.$.$.$.. - 7 t p h m B B B B B B B B N B B B B B m l p t 4 - . $.$.$.$.$.$.$.$.$.$.$.",
"$.$.$.$.$.$.$.$.$.$.$.$.$.> 3 7 0 e e e e e e e e e e e e e e e 0 9 7 3 < $.$.$.$.$.$.$.$.$.$.$.$.$.",
"$.$.$.$.$.$.$.$.$.$.$.$.$.= $ = = $ % $ % % % % % % % % % % $ % * * * * * $.$.$.$.$.$.$.$.$.$.$.$.$.",
"$.$.$.$.$.$.$.$.$.$.$.$.$.O O o .                                 . X o O $.$.$.$.$.$.$.$.$.$.$.$.$."
};
