/* XPM */
static char *result[] = {
/* columns rows colors chars-per-pixel */
"30 30 185 2 ",
"   c #000001",
".  c #00000B",
"X  c #000014",
"o  c #00001C",
"O  c #181C1C",
"+  c #211E16",
"@  c #000023",
"#  c #00002B",
"$  c #050B29",
"%  c #140021",
"&  c #160028",
"*  c #1E1E2E",
"=  c #191930",
"-  c #280025",
";  c #350028",
":  c #3C002A",
">  c #34042B",
",  c #23172D",
"<  c #26182E",
"1  c #002A30",
"2  c #2B242C",
"3  c #2C2827",
"4  c #332B2B",
"5  c #383425",
"6  c #38362B",
"7  c #383525",
"8  c #363835",
"9  c #363634",
"0  c #273132",
"q  c #5C0000",
"w  c #480018",
"e  c #600000",
"r  c #40002B",
"t  c #540033",
"y  c #591936",
"u  c #490E33",
"i  c #740231",
"p  c #7B0D3A",
"a  c #7D0A35",
"s  c #781636",
"d  c #562723",
"f  c #49362F",
"g  c #572038",
"h  c #5A2139",
"j  c #493532",
"k  c #6D2728",
"l  c #682828",
"z  c #712828",
"x  c #705300",
"c  c #6A5E1F",
"v  c #4A463D",
"b  c #5C573F",
"n  c #76552E",
"m  c #7A562E",
"M  c #7B5A31",
"N  c #735534",
"B  c #7A6122",
"V  c #7C722E",
"C  c #776C35",
"Z  c #544F41",
"A  c #5F6347",
"S  c #676242",
"D  c #736D45",
"F  c #776F48",
"G  c #757349",
"H  c #7B734A",
"J  c #7F7B4B",
"K  c #7C7643",
"L  c #767E5C",
"P  c #6F6B74",
"I  c #717374",
"U  c #93123C",
"Y  c #99133D",
"T  c #8D1D24",
"R  c #A61835",
"E  c #88203C",
"W  c #892328",
"Q  c #BA2F3C",
"!  c #BD303D",
"~  c #A92236",
"^  c #C31C22",
"/  c #CA2F22",
"(  c #C22C28",
")  c #D23123",
"_  c #E33F37",
"`  c #825E34",
"'  c #876B3B",
"]  c #8A733C",
"[  c #E5443E",
"{  c #EA473F",
"}  c #9D2441",
"|  c #942842",
" . c #9A2A45",
".. c #A02141",
"X. c #B63148",
"o. c #BA3248",
"O. c #C43744",
"+. c #C83945",
"@. c #8E4655",
"#. c #837B4D",
"$. c #877C48",
"%. c #877E50",
"&. c #9A7B41",
"*. c #E84640",
"=. c #69847D",
"-. c #68847A",
";. c #7E8D7F",
":. c #C79235",
">. c #C38E34",
",. c #8B824B",
"<. c #89834A",
"1. c #968A4B",
"2. c #8A8251",
"3. c #8A8951",
"4. c #938B53",
"5. c #978B51",
"6. c #9D9256",
"7. c #9E9458",
"8. c #A59A5A",
"9. c #A69B5B",
"0. c #B89E51",
"q. c #AE954C",
"w. c #B5A95F",
"e. c #878662",
"r. c #959068",
"t. c #86897D",
"y. c #A89B76",
"u. c #B4A961",
"i. c #BEB165",
"p. c #DCAE47",
"a. c #E4B54D",
"s. c #E6B951",
"d. c #ECBE53",
"f. c #E4B85D",
"g. c #CCBF6C",
"h. c #E7BE63",
"j. c #CCC16D",
"k. c #D5C770",
"l. c #DACC72",
"z. c #DFD375",
"x. c #D5C76F",
"c. c #E6CD6C",
"v. c #E9D46D",
"b. c #EBDB6D",
"n. c #E4D66A",
"m. c #F0DE6D",
"M. c #E4D475",
"N. c #E6DA79",
"B. c #ECDD7A",
"V. c #E9D775",
"C. c #F2DA73",
"Z. c #F4E16E",
"A. c #EAE17E",
"S. c #F2E27D",
"D. c #F9E778",
"F. c #608680",
"G. c #7A8381",
"H. c #898E82",
"J. c #929686",
"K. c #AEAF90",
"L. c #B1B393",
"P. c #E4DE98",
"I. c #EFE380",
"U. c #FCEC81",
"Y. c #F4E882",
"T. c #FEF687",
"R. c #FFF888",
"E. c #FFF688",
"W. c #ECE49C",
"Q. c #F0E79E",
"!. c #FAE998",
"~. c #FDF09C",
"^. c #EFE9A6",
"/. c #C3CDC3",
"(. c #DEE6C9",
"). c #DCE6D4",
"_. c #E6EDCE",
"`. c #EAEAC5",
"'. c #E1EEDD",
"]. c #E6F2DC",
"[. c #EAF1D5",
"{. c #FAFFDE",
"}. c #FEFFE2",
"|. c #E5F2E1",
" X c None",
/* pixels */
" X X X X X X X X X X X X X X X X X X X X X X X X X X X X X X",
" X X X X X X X X X X X X X X X X X X X X X X X X X X X X X X",
" X X X X X XX @ # *  X X X X X X X X X X X X= # o o  X X X X",
" X X X X X X#.#.Z #  X X X X X X X X X X X X* v 2.#. X X X X",
" X X X X5 #.l.k.#.@ # < , , , , , , , , , # 3 C l.k.%.X  X X",
" X X X X7 4.U.D.5.@ > h h g g g g g g g h : 3 <.D.U.8.o  X X",
" X X X X5 ,.Z.b.<.# p  .| | | | | | | |  .p 5 ] Z.b.5.o  X X",
" X X X X6 e.Q.P.e.w R +.O.O.O.O.O.O.O.O.O.~ d -.Q.W.r.   X X",
" X X X X8 t._.(.;.q ^ *.*.*.*.*.*.*.*.[ [ ( l -._._.J.   X X",
" X X X X8 t.[.(.;.q ^ *.) / / ( / / ( ) _ ( l I _._.J.   X X",
" X X X X6 2.W.W.e.w R ( W z l z k k l T Q ~ d L W.W.r.   X X",
" X X X X6 2.Z.b.<.o s @.I =.F.F.=.=.F.I @.i 3 $.m.b.1.@  X X",
" X X X X5 2.S.V.$.  < P /.'.].].].].|./.I   . S S.B.6.X  X X",
" X X X X5 2.S.S.i.C B y.`.}.].).).[.}.`.y.x ] u.D.S.4.X  X X",
" X X X X7 ,.S.T.Y.c.p.s.~.^.L.G.H.K.^.!.c.p.c.Y.R.S.4.o  X X",
" X X X X4 F g.N.A.v.a.s.D.n.V     c m.Z.d.p.c.A.B.j.H @  X X",
" X X X X* v H 1.5.$.' q.D.A.<.  + C Z.S.0.` $.5.4.H v #  X X",
" X X X X* # o X X X o A x.l.9.D G 9.M.j.G o . X o @ # 2  X X",
" X X X X X X$ # # # $ 8 b 9.z.D.U.M.8.S 2 # # # # $  X X X X",
" X X X X X X# j n n f # . C j.A.A.j.b O @ f n m j ,  X X X X",
" X X X X X X# ` :.>.M # o 0 G 4.4.G 1 @ # M >.:.N 2  X X X X",
" X X X X X X# &.d.s.] # u t : - - : y r # ] s.d.' 4  X X X X",
" X X X X X XX 6.C.v.,.@ E  .U U U U ..E & %.v.C.%.5  X X X X",
" X X X X X X  8.I.A.3.% ~ o.o.X.X.X.o.Y ; 3.B.Y.3.5  X X X X",
" X X X X X X. 6.S.B.3.% ..o.X.X.X.X.o.Y ; ,.N.S.2.5  X X X X",
" X X X X X X. 6.B.V.2.. a U U U U U Y i o ,.N.S.2.5  X X X X",
" X X X X X X. 6.B.N.<.  % > > > ; ; : o   #.V.S.2.5  X X X X",
" X X X X X X. 6.B.S.w.K J J #.J J J J #.F w.A.S.%.5  X X X X",
" X X X X X X. 4.N.U.B.z.z.z.z.z.z.z.z.z.z.A.U.N.%.5  X X X X",
" X X X X X X. 4.N.E.R.E.R.R.R.R.R.R.R.R.R.R.T.V.#.5  X X X X"
};
