/* XPM */
static char *result[] = {
/* columns rows colors chars-per-pixel */
"30 30 172 2 ",
"   c #000001",
".  c #00000C",
"X  c #000014",
"o  c #00001C",
"O  c #000024",
"+  c #00012B",
"@  c #010B2D",
"#  c #0D0C2B",
"$  c #130021",
"%  c #180022",
"&  c #130E2D",
"*  c #01152C",
"=  c #0A112C",
"-  c #12162E",
";  c #15182E",
":  c #1A1C2E",
">  c #111326",
",  c #000B30",
"<  c #141730",
"1  c #161A31",
"2  c #1B1E30",
"3  c #340028",
"4  c #3A002A",
"5  c #221C2E",
"6  c #2A1D2D",
"7  c #1D212E",
"8  c #162222",
"9  c #1F2331",
"0  c #262826",
"q  c #2E2A23",
"w  c #29232B",
"e  c #262928",
"r  c #272328",
"t  c #322929",
"y  c #212230",
"u  c #2E3131",
"i  c #313434",
"p  c #3A3834",
"a  c #430B30",
"s  c #4B1232",
"d  c #591F34",
"f  c #740030",
"g  c #7D0A35",
"h  c #7E1538",
"j  c #4B282E",
"k  c #48372F",
"l  c #42332F",
"z  c #5C2035",
"x  c #483730",
"c  c #473C34",
"v  c #7E5900",
"b  c #4A473C",
"n  c #484336",
"m  c #524E3F",
"M  c #5F583F",
"N  c #6F5432",
"B  c #775932",
"V  c #7C5D33",
"C  c #7F6033",
"Z  c #7C663A",
"A  c #3B444E",
"S  c #43474E",
"D  c #464C52",
"F  c #6E6845",
"G  c #746D46",
"H  c #7A7346",
"J  c #7B734A",
"K  c #7E7C4C",
"L  c #757448",
"P  c #77755A",
"I  c #5A6F76",
"U  c #747C7A",
"Y  c #787F7C",
"T  c #737A76",
"R  c #871C3B",
"E  c #92113B",
"W  c #991B3D",
"Q  c #866729",
"!  c #836432",
"~  c #8A6633",
"^  c #8D6A35",
"/  c #8C6F3C",
"(  c #916E38",
")  c #8B703C",
"_  c #8B7A3C",
"`  c #847336",
"'  c #9B2B40",
"]  c #A02241",
"[  c #A02D42",
"{  c #B53047",
"}  c #B83147",
"|  c #B63148",
" . c #BA3248",
".. c #857D4B",
"X. c #887F4D",
"o. c #907440",
"O. c #867D51",
"+. c #7B827E",
"@. c #7C8075",
"#. c #C6953C",
"$. c #C9983C",
"%. c #DDA63C",
"&. c #DDA337",
"*. c #E1A638",
"=. c #E3AB3E",
"-. c #8B824D",
";. c #87844D",
":. c #90844D",
">. c #94894D",
",. c #8B8351",
"<. c #8A8A51",
"1. c #948750",
"2. c #948B52",
"3. c #998F55",
"4. c #A19654",
"5. c #A69B55",
"6. c #A89E58",
"7. c #A1975B",
"8. c #ADA15D",
"9. c #B5A95F",
"0. c #828061",
"q. c #8B8E7E",
"w. c #AD9C78",
"e. c #B3A760",
"r. c #BCAF63",
"t. c #DEAA41",
"y. c #DFB048",
"u. c #E4AC40",
"i. c #E9B040",
"p. c #E1B24F",
"a. c #E0B146",
"s. c #E1B551",
"d. c #E5B953",
"f. c #CBBE6C",
"g. c #E9BC61",
"h. c #E2C95F",
"j. c #D6C967",
"k. c #D7C96E",
"l. c #D3C569",
"z. c #D6C770",
"x. c #DACC72",
"c. c #D6CA71",
"v. c #DFD476",
"b. c #E7CD6B",
"n. c #E8C965",
"m. c #E6D16F",
"M. c #E8D06F",
"N. c #E4D576",
"B. c #ECD572",
"V. c #E4D778",
"C. c #E7DE7B",
"Z. c #EBDD7B",
"A. c #EDE17E",
"S. c #F3E47E",
"D. c #B6A681",
"F. c #F1E780",
"G. c #F7EA81",
"H. c #FBEB82",
"J. c #FFF486",
"K. c #FFF788",
"L. c #FFF888",
"P. c #EAE49C",
"I. c #FFF19D",
"U. c #F0EAA1",
"Y. c #FFFAA3",
"T. c #C9D6CA",
"R. c #D2DDCF",
"E. c #E7EBCA",
"W. c #F1F0CA",
"Q. c #EEF4D0",
"!. c #F6F9D1",
"~. c None",
/* pixels */
"~.~.~.~.~.~.~.~.~.~.~.~.~.~.~.~.~.~.~.~.~.~.~.~.~.~.~.~.~.~.",
"~.~.~.~.~.~.~.~.~.~.~.~.~.~.~.~.~.~.~.~.~.~.~.~.~.~.~.~.~.~.",
"~.~.~.~.X o + ; ~.~.~.~.~.~.~.~.~.~.~.~.~.~.~.~.2 + O X ~.~.",
"~.~.~.~...-.S : ~.~.~.~.~.~.~.~.~.~.~.~.~.~.~.~.+ m O...~.~.",
"~.~.X ,.z.x.J r O ; : ; i i : : 7 ; i u 7 < 1 + o X.k.x.:.X ",
"~.~.o 7.H.H...q O + > A Y U D o > S +.T D O + + . 3.S.S.4.o ",
"~.~.X 3.Z.A.G .     * I T.T.q.  0 T R.T.U     .   ..Z.Z.2.X ",
"~.~.X 3.Z.H.e.,.<._ Q w.!.E.q.  0 Y Q.W.D.v _ 1...r.S.Z.2.X ",
"~.~.o 2.Z.L.S.Z.Z.M.a.g.Y.P.@.    P U.I.n.t.b.A.N.S.K.Z.1.X ",
"~.~.o J l.C.Z.Z.Z.M.p.t.n.j.5.;.>.7.j.n.t.p.M.A.Z.Z.Z.f.L o ",
"~.~.+ b J 1.2.2.2.:./ ~ ` 5.j.S.F.c.4.` ! ) :.2.2.2.:.H n + ",
"~.~.7 + o X X o X o + O   G l.H.F.c.N X O + o X X X X o + y ",
"~.~.: , + + + + + + @ + O c G ,.,.G p # + , + + @ + + O + y ",
"~.~.+ c B V l & @ - - ; : ; r q q e & : : = < # + k B B x + ",
"~.~.+ ! #.$.N 6 @ ; ; ; : = + O O O @ ; : ; - * + V #.#.V + ",
"~.~.+ ( u.i.! w + ; ; ; - ; ; ; 1 ; ; ; ; < - @ + ^ =.=.^ + ",
"~.~.+ ( u.=.! 6 @ ; ; ; ; ; ; ; ; ; ; ; - ; - @ + ^ u.t.~ + ",
"~.~.+ ( t.u.V 6 + ; ; ; ; ; ; ; - ; ; < ; ; < @ + ^ t.%.~ + ",
"~.~.+ / u.u.V 6 + : ; ; ; ; ; ; ; 1 ; : ; 1 = @ + ~ %.%.~ + ",
"~.~.+ ^ %.*.V 6 + * * * * * * * * * * * * * * @ + ~ %.%.~ + ",
"~.~.+ ^ &.*.V 6 + * * * * * * * * @ * * * * * @ + ~ &.&.~ + ",
"~.~.+ o.s.d.Z 6 a z z z d d z z d d d d z z z s O ) s.s.) O ",
"~.~.o 1.B.B.J t h [ ' ' ' ' ' ' ' ' ' ' ' ' ' R O -.m.m.:.o ",
"~.~.X 2.F.F.K j W  .{ { { { | | { | { } } } } ' $ <.A.A.1.X ",
"~.~.X 3.Z.S.H j W  . . .{ { { | | | | | | } } ] % <.Z.Z.1.X ",
"~.~.X 3.Z.S.L 8 f E E E E E E E E E E E E E E g X ;.Z.Z.1.X ",
"~.~.X 3.Z.S.G X o 4 3 3 3 3 3 3 3 3 3 3 3 3 3 $   ..Z.Z.>.X ",
"~.~.o 2.Z.S.8...K K K ..K K K K K K K K K K K K H 9.Z.Z.>.X ",
"~.~.o ,.Z.J.Z.v.v.v.v.v.v.v.v.v.v.v.v.v.v.v.v.v.v.Z.H.N.-.X ",
"~.~.X ,.N.K.L.L.L.L.L.L.L.L.L.L.L.L.L.L.L.L.L.L.L.L.K.N.-.X "
};
