/* XPM */
static char *result[] = {
/* columns rows colors chars-per-pixel */
"30 30 181 2 ",
"   c #000000",
".  c #080000",
"X  c #00000C",
"o  c #1B0000",
"O  c #000014",
"+  c #00001C",
"@  c #1B101C",
"#  c #2C0000",
"$  c #2F000A",
"%  c #310014",
"&  c #231D13",
"*  c #2D2B1B",
"=  c #23211D",
"-  c #000024",
";  c #00002A",
":  c #00092F",
">  c #130024",
",  c #00152B",
"<  c #1F1E2E",
"1  c #3E0029",
"2  c #162222",
"3  c #292727",
"4  c #30282B",
"5  c #363A38",
"6  c #252731",
"7  c #4D0000",
"8  c #590000",
"9  c #600000",
"0  c #502D19",
"q  c #5E351A",
"w  c #5F1E38",
"e  c #4A0630",
"r  c #780533",
"t  c #7E1538",
"y  c #4A272E",
"u  c #402C2C",
"i  c #512722",
"p  c #43302F",
"a  c #5D3721",
"s  c #402730",
"d  c #5E2137",
"f  c #662725",
"g  c #633A21",
"h  c #612238",
"j  c #6A5B00",
"k  c #755B00",
"l  c #5B553B",
"z  c #4E493D",
"x  c #69462A",
"c  c #775933",
"v  c #77562E",
"b  c #70683F",
"n  c #5B5D43",
"m  c #5D6146",
"M  c #756C44",
"N  c #796B44",
"B  c #74744B",
"V  c #7B744B",
"C  c #7B7846",
"Z  c #767E5C",
"A  c #6F6845",
"S  c #746D72",
"D  c #7B7777",
"F  c #8D173C",
"G  c #881B3C",
"H  c #911639",
"J  c #961C3C",
"K  c #981138",
"L  c #970038",
"P  c #A01839",
"I  c #9F2037",
"U  c #BF2B26",
"Y  c #A12032",
"T  c #A8283A",
"R  c #C53331",
"E  c #80772E",
"W  c #836D33",
"Q  c #87773D",
"!  c #92743F",
"~  c #DE423B",
"^  c #E1433C",
"/  c #931D41",
"(  c #9D2C42",
")  c #9D2241",
"_  c #A62C45",
"`  c #AA2D47",
"'  c #AC2E48",
"]  c #AE3048",
"[  c #B33047",
"{  c #BF3642",
"}  c #BA344B",
"|  c #B63148",
" . c #B62F47",
".. c #C13642",
"X. c #C53944",
"o. c #8D4555",
"O. c #847C4C",
"+. c #8D7E4A",
"@. c #837847",
"#. c #807B78",
"$. c #6C8377",
"%. c #BD8529",
"&. c #C08A2F",
"*. c #C18A30",
"=. c #87824D",
"-. c #8A834D",
";. c #8A884F",
":. c #8B8245",
">. c #91864F",
",. c #948A4D",
"<. c #8B8452",
"1. c #958B53",
"2. c #948A53",
"3. c #9D9255",
"4. c #9D9359",
"5. c #A69B5A",
"6. c #AC9450",
"7. c #B49B53",
"8. c #AC954E",
"9. c #ADA35C",
"0. c #888B62",
"q. c #918C62",
"w. c #959068",
"e. c #A89C77",
"r. c #BCB063",
"t. c #B4A861",
"y. c #D9AC45",
"u. c #E6B64D",
"i. c #E5B855",
"p. c #C8BB6B",
"a. c #E6BD62",
"s. c #EFC04F",
"d. c #EFC257",
"f. c #F3C558",
"g. c #CDC16D",
"h. c #D2C46E",
"j. c #D7C870",
"k. c #DACB72",
"l. c #D6C770",
"z. c #DED376",
"x. c #E3CC6A",
"c. c #EBDB6B",
"v. c #E5D169",
"b. c #F1DF6D",
"n. c #E1D476",
"m. c #EBDB77",
"M. c #E5DA7A",
"N. c #ECDD7A",
"B. c #EAD473",
"V. c #FFE46C",
"C. c #ECE17C",
"Z. c #F2E37D",
"A. c #FFE97C",
"S. c #FCE976",
"D. c #7D9289",
"F. c #798384",
"G. c #839184",
"H. c #899284",
"J. c #929686",
"K. c #828A85",
"L. c #ADAE8E",
"P. c #B3B593",
"I. c #F5E681",
"U. c #FBEC81",
"Y. c #FFF788",
"T. c #FFFA89",
"R. c #FFF486",
"E. c #E7E09A",
"W. c #EBE29B",
"Q. c #FDEC9A",
"!. c #C0C9BE",
"~. c #EFEAA6",
"^. c #C1CCC0",
"/. c #DEE7D7",
"(. c #E4EBCD",
"). c #ECECC7",
"_. c #E1EBD7",
"`. c #E2EADC",
"'. c #EDF2DB",
"]. c #FEFEE2",
"[. c None",
/* pixels */
"[.[.[.[.[.[.[.[.[.[.[.[.[.[.[.[.[.[.[.[.[.[.[.[.[.[.[.[.[.[.",
"[.[.[.[.[.[.[.[.[.[.[.[.[.[.[.[.[.[.[.[.[.[.[.[.[.[.[.[.[.[.",
"[.[.[.[.[.[.[.[.[.[.[.[.[.[.[.[.[.[.[.[.[.[.[.[.[.[.[.[.[.[.",
"[.[.[.[.[.[.[.[.[.[.[.[.[.[.[.[.[.[.[.[.[.[.[.[.[.[.[.[.[.[.",
"[.[.[.[.[.[.[.[.[.[.[.[.[.[.[.[.[.[.[.[.[.[.[.[.[.[.[.[.[.[.",
"[.[.[.[.[.[.[.[.[.[.[.[.[.[.[.[.[.[.[.[.[.[.[.[.[.[.[.[.[.[.",
"[.[.[.[.  O ; < [.[.[.[.[.[.[.[.[.[.[.[.[.[.[.[.6 ; O   [.[.",
"[.[.[.[.-.2.z < [.[.[.[.[.[.[.[.[.[.[.[.[.[.[.[.; n <.>.[.[.",
"[.[.O O.j.k.V 3 - , , , , , , , , , , , , , , ; + O.j.j.-.O ",
"[.[.O 5.I.I.=.3 e h d d d d d d d d d d d h h e O 1.Z.Z.3.O ",
"[.[.O 4.Z.Z.C 4 t _ ( ( ( ( ( ( ( ( ( ( ( ( _ G + 1.C.N.1.O ",
"[.[.O 1.N.Z.C i J | | [ [ [ [ [ [ ] | | [ | [ ) > ;.m.m.2.O ",
"[.[.- ,.b.b.$.u G ' ' _ _ _ _ ` _ ` _ _ _ ' ' / ; ;.c.c.,.- ",
"[.[.  w.W.W.C 0 Y X.X.{ { { { { { { { { { ...._ # 0.E.E.q.  ",
"[.[.  J.(.(.D f U ^ ^ ~ ~ ~ ~ ~ ~ ~ ~ ~ ~ ^ ^ R 7 w.(.(.w.X ",
"[.[.  J.(.(.$.f R ^ ^ ~ ~ ^ ^ ~ ^ ^ ^ ~ ~ ^ ^ R 7 $.(.(.H.  ",
"[.[.  w.W.W.Z i Y X...{ { ..{ ......{ ..{ ....T # 0.E.E.q.  ",
"[.[.+ 1.c.V.@.4 G ] ' _ J F F / F F F ) _ ` ` / - ;.c.c.,.+ ",
"[.[.O 1.N.C.C y H } } K 8 #   . . .   9 T } | ) > ;.N.N.,.O ",
"[.[.O 3.N.I.B 2 r K I o.D D.G.G.G.G.D.#.o.L K r X =.m.N.2.O ",
"[.[.O 1.N.N.M O O % 1 S !./.`._.`././.!.S o $ -   O.m.N.1.O ",
"[.[.O 3.Z.U.t.>.;.@.W e.).].'./._.'.].).e.k @.;.O.r.Z.N.,.O ",
"[.[.O 2.N.R.Z.M.M.x.y.i.Q.~.P.F.K.L.~.Q.a.y.v.M.M.Z.R.m.,.O ",
"[.[.- V p.Z.N.Z.C.c.u.s.S.v.E     j v.V.s.u.B.I.Z.Z.N.p.V + ",
"[.[.; 5 n B @.O.<.N c 6.A.C.:.    b Z.S.7.x V +.O.@.B n 5 ; ",
"[.[.: p x g = * * & @ n p.h.9.:.2.5.k.p.M O = * * @ a x 4 ; ",
"[.[.; c *.&.0 X X O O - l 3.j.I.C.k.3.l - + O X X q %.%.v ; ",
"[.[.- +.i.f.6.O.O.O.O.@.M 3.j.Z.C.k.1.C @.-.O.@.V 7.d.i.! - ",
"[.[.- +.B.A.m.z.z.n.n.n.n.g.5.-.-.5.h.z.n.n.n.z.z.N.A.x.+.+ ",
"[.[.O >.M.T.T.T.Y.Y.T.T.T.M.@.  X A C.T.T.R.T.T.T.T.T.M.-.O "
};
