/* XPM */
static char *result[] = {
/* columns rows colors chars-per-pixel */
"30 30 188 2 ",
"   c black",
".  c #01000C",
"X  c #100001",
"o  c #000014",
"O  c #00001A",
"+  c #0B001F",
"@  c #15001F",
"#  c #10111B",
"$  c #2D000E",
"%  c #211E16",
"&  c #000024",
"*  c #00002A",
"=  c #090023",
"-  c #1A0022",
";  c #00162B",
":  c #091729",
">  c #1F1E2E",
",  c #180031",
"<  c #001630",
"1  c #250024",
"2  c #3C002F",
"3  c #331128",
"4  c #2D162B",
"5  c #1C2C27",
"6  c #2A2729",
"7  c #3D2A26",
"8  c #342729",
"9  c #252731",
"0  c #4C0000",
"q  c #500000",
"w  c #481518",
"e  c #47002B",
"r  c #4B002C",
"t  c #401131",
"y  c #561F38",
"u  c #591F39",
"i  c #470634",
"p  c #790433",
"a  c #7D1337",
"s  c #43272F",
"d  c #532729",
"f  c #532922",
"g  c #5A203A",
"h  c #403F36",
"j  c #662626",
"k  c #755B00",
"l  c #6A5E1F",
"z  c #48453B",
"x  c #57533D",
"c  c #604B29",
"v  c #6F5C33",
"b  c #785C31",
"n  c #74562D",
"m  c #7D722E",
"M  c #64653F",
"N  c #796A36",
"B  c #7D6626",
"V  c #775842",
"C  c #6C6643",
"Z  c #6A6645",
"A  c #746B45",
"S  c #786B48",
"D  c #7D7B4A",
"F  c #7A7347",
"G  c #777E5B",
"H  c #6F6B74",
"J  c #777374",
"K  c #8A132F",
"L  c #87132F",
"P  c #820638",
"I  c #9D0A3F",
"U  c #8A183D",
"Y  c #9C1B3E",
"T  c #961538",
"R  c #9D263E",
"E  c #A32136",
"W  c #AA283C",
"Q  c #BE2B25",
"!  c #C63432",
"~  c #C22C26",
"^  c #86773C",
"/  c #826C36",
"(  c #DF423C",
")  c #E1433B",
"_  c #E8463D",
"`  c #A51E42",
"'  c #992A43",
"]  c #962041",
"[  c #963943",
"{  c #A62442",
"}  c #A82042",
"|  c #B22F48",
" . c #AF3048",
".. c #BF3743",
"X. c #B43149",
"o. c #C23744",
"O. c #C43845",
"+. c #C93947",
"@. c #914753",
"#. c #827A46",
"$. c #847C4C",
"%. c #887F4B",
"&. c #80714C",
"*. c #937640",
"=. c #826346",
"-. c #6D8379",
";. c #74857D",
":. c #C48D2E",
">. c #C58D31",
",. c #8B834F",
"<. c #8B884B",
"1. c #948A4E",
"2. c #93874C",
"3. c #8C8551",
"4. c #8E8B52",
"5. c #948A52",
"6. c #988B53",
"7. c #908653",
"8. c #9D9154",
"9. c #A29A5A",
"0. c #A99E5C",
"q. c #B49E50",
"w. c #AC944B",
"e. c #ADA25F",
"r. c #888B61",
"t. c #928D63",
"y. c #88917F",
"u. c #959068",
"i. c #A89B76",
"p. c #B5A961",
"a. c #BCAF63",
"s. c #DCAE47",
"d. c #DDB14B",
"f. c #E7B953",
"g. c #EABD51",
"h. c #E3B757",
"j. c #E5B74A",
"k. c #C6BB6A",
"l. c #C9BC6A",
"z. c #E7BE63",
"x. c #D0C16D",
"c. c #D6C771",
"v. c #D7C972",
"b. c #DBCE73",
"n. c #DED275",
"m. c #E5CE6C",
"M. c #EBDB6E",
"N. c #E7D46D",
"B. c #E1D476",
"V. c #EED571",
"C. c #ECDC74",
"Z. c #E5D778",
"A. c #EBDD7B",
"S. c #E6DB7B",
"D. c #F0D771",
"F. c #EDE07D",
"G. c #F2E175",
"H. c #F4E47D",
"J. c #FBE976",
"K. c #6C8780",
"L. c #7A8381",
"P. c #898E82",
"I. c #879182",
"U. c #929687",
"Y. c #AEAF90",
"T. c #B1B393",
"R. c #E9DF96",
"E. c #F7E881",
"W. c #FFF486",
"Q. c #FFF888",
"!. c #FFF788",
"~. c #ECE39B",
"^. c #E9E199",
"/. c #FEF09C",
"(. c #FAE998",
"). c #EFE9A6",
"_. c #C3CDC3",
"`. c #DCE6D4",
"'. c #E4EACC",
"]. c #EAEAC5",
"[. c #E6EED2",
"{. c #E1EEDD",
"}. c #E6F1DC",
"|. c #E9F2DA",
" X c #F9FFDE",
".X c #E5F2E1",
"XX c #FEFFE2",
"oX c None",
/* pixels */
"oXoXoXoXoXoXoXoXoXoXoXoXoXoXoXoXoXoXoXoXoXoXoXoXoXoXoXoXoXoX",
"oXoXoXoXoXoXoXoXoXoXoXoXoXoXoXoXoXoXoXoXoXoXoXoXoXoXoXoXoXoX",
"oXoXoXoXoXoXoXoXoXoXoXoXoXoXoXoXoXoXoXoXoXoXoXoXoXoXoXoXoXoX",
"oXoXoXoXoXoXoXoXoXoXoXoXoXoXoXoXoXoXoXoXoXoXoXoXoXoXoXoXoXoX",
"oXoXoXoXoXoXoXoXoXoXoXoXoXoXoXoXoXoXoXoXoXoXoXoXoXoXoXoXoXoX",
"oXoXoXoXoXoXoXoXoXoXoXoXoXoXoXoXoXoXoXoXoXoXoXoXoXoXoXoXoXoX",
"oXoXoXoX  o * > oXoXoXoXoXoXoXoXoXoXoXoXoXoXoXoX9 * o   oXoX",
"oXoXoXoX,.7.z > oXoXoXoXoXoXoXoXoXoXoXoXoXoXoXoX* x 3.7.oXoX",
"oXoXo ,.c.n.N 8 & ; ; ; ; ; ; ; ; ; ; ; ; ; ; * O $.v.v.,.o ",
"oXoXo 9.H.J.<.5 i g y y g y g g g g g g g g g t O 6.G.G.8.O ",
"oXoXO 8.G.G.^ 6 a ' ' ' ' ' R ' ' ' ' ' R  .R U & 1.C.G.1.o ",
"oXoX  u.^.~.-.f E +.+.o.........o.o.o.o.W +.O.W $ 4.R.R.t.  ",
"oXoX  U.[.[.-.j Q _ ) ( ( ( ( ) ( ( ) ( ) ) ) ! 0 L.[.[.U.  ",
"oXoX  U.].'.-.j Q _ ) ( ( ( ( ( ( ( ( ( ( ) ) ! 0 I.'.'.y.  ",
"oXoX  u.(.~.-.d E O.....O.O.O.O.o.+.o.....o...W $ r.^.^.t.  ",
"oXoXO 1.M.M.^ s U  . .{ T K K K K K L T W  . .] & <.M.M.2.O ",
"oXoXO 6.C.G.D 7 T X.X.' j 8 8 7 7 7 5 j R X.| Y = <.Z.C.2.o ",
"oXoXO 6.A.H.F 6 p Y Y @.J ;.;.;.;.;.-.J @.T Y P O <.A.A.5.o ",
"oXoXo 8.A.A.Z . o o 4 H _.{.}.|.|.}..X_.J   X O   $.Z.A.5.o ",
"oXoXo 6.H.E.p.3.3.m B i.]. X|.`.`.|.XX].i.k ^ 4.$.a.H.A.2.o ",
"oXoXO 7.A.Q.E.A.A.m.d.z./.).T.L.P.Y.).(.z.s.m.F.A.H.!.A.5.o ",
"oXoX& F l.S.A.A.A.m.d.j.J.N.m     l M.J.g.d.m.F.A.A.S.k.S O ",
"oXoX* h A $.3.5.4.#.N w.J.M.2.  % N G.G.q.v D 4.6.<.$.C h * ",
"oXoX< 8 d w o O O = 3 S c.v.0.A S 9.n.x.&.& - O O O w f 8 < ",
"oXoX* b >.>.c t U ` } [ V 9.n.H.H.B.9.=.[ { ` U , n :.:.b * ",
"oXoX* *.f.g.v : p I I L $ Z k.A.F.l.x # p I I P & / d.h.^ & ",
"oXoXO 6.V.D.A o = i e 1 . & Z ,.%.M & o - r e 1   #.V.V.2.O ",
"oXoXo 6.A.E.e.$.#.D D D $.$.A C C S $.$.$.D D D F p.E.A.1.o ",
"oXoXo 7.A.W.A.n.n.n.n.n.Z.n.n.b.b.B.B.B.B.n.n.n.b.A.W.Z.,.o ",
"oXoXO 3.Z.!.!.!.Q.Q.Q.Q.Q.Q.Q.Q.Q.Q.!.Q.Q.Q.Q.Q.Q.Q.Q.B.%.o "
};
