/* XPM */
static char *result[] = {
/* columns rows colors chars-per-pixel */
"30 30 186 2 ",
"   c black",
".  c #00000D",
"X  c #000015",
"o  c #00001B",
"O  c #15001A",
"+  c #16111D",
"@  c #2E000F",
"#  c #211E16",
"$  c #3F1218",
"%  c #000024",
"&  c #00002B",
"*  c #1F0020",
"=  c #1A0028",
"-  c #00162C",
";  c #1C1C2D",
":  c #111830",
">  c #290826",
",  c #3C002D",
"<  c #32002A",
"1  c #3C0431",
"2  c #27172A",
"3  c #1B2C27",
"4  c #2A262A",
"5  c #312B27",
"6  c #3D2A26",
"7  c #36272A",
"8  c #393425",
"9  c #393529",
"0  c #363424",
"q  c #322030",
"w  c #363935",
"e  c #5D0000",
"r  c #450517",
"t  c #441132",
"y  c #561F38",
"u  c #581F39",
"i  c #7F002F",
"p  c #7C0638",
"a  c #7A1238",
"s  c #522729",
"d  c #562B22",
"f  c #492730",
"g  c #5B203A",
"h  c #403F3B",
"j  c #682626",
"k  c #705300",
"l  c #6A5E1F",
"z  c #5F4B29",
"x  c #48453B",
"c  c #53533B",
"v  c #6F5C33",
"b  c #775931",
"n  c #6D522A",
"m  c #7A6122",
"M  c #7D722E",
"N  c #64653F",
"B  c #776C35",
"V  c #585340",
"C  c #795943",
"Z  c #6C6643",
"A  c #6E6A47",
"S  c #656041",
"D  c #756C45",
"F  c #766F49",
"G  c #7A6A49",
"H  c #7B7949",
"J  c #7A7549",
"K  c #777E5B",
"L  c #716B74",
"P  c #797373",
"I  c #8A132F",
"U  c #87132F",
"Y  c #800633",
"T  c #930C3F",
"R  c #88153A",
"E  c #94193F",
"W  c #951833",
"Q  c #BF1C21",
"!  c #A41A35",
"~  c #A42B3F",
"^  c #BE2A25",
"/  c #C31D1E",
"(  c #C22B26",
")  c #836B39",
"_  c #84753B",
"`  c #DF423C",
"'  c #E2433C",
"]  c #E9473D",
"[  c #9A2B43",
"{  c #9A3542",
"}  c #AA2842",
"|  c #A03F45",
" . c #C23745",
".. c #C53845",
"X. c #CA3946",
"o. c #984854",
"O. c #847C4C",
"+. c #877A49",
"@. c #937640",
"#. c #877F51",
"$. c #866347",
"%. c #6D8479",
"&. c #74857D",
"*. c #7E8D7E",
"=. c #BF8A2D",
"-. c #C78F2D",
";. c #CA912F",
":. c #C58D31",
">. c #89824D",
",. c #8E894D",
"<. c #958B4F",
"1. c #908645",
"2. c #8B8251",
"3. c #87865F",
"4. c #908753",
"5. c #948B54",
"6. c #988B53",
"7. c #9B9054",
"8. c #A29B5A",
"9. c #A59959",
"0. c #B49E50",
"q. c #AB944B",
"w. c #ADA25E",
"e. c #878662",
"r. c #858A7D",
"t. c #959067",
"y. c #A89B76",
"u. c #B4A962",
"i. c #BEB165",
"p. c #DCAE47",
"a. c #DFB34E",
"s. c #EBBD52",
"d. c #E6B958",
"f. c #E5B74A",
"g. c #C7BC6B",
"h. c #E7BE63",
"j. c #D1C16E",
"k. c #D5C670",
"l. c #DACD73",
"z. c #DED174",
"x. c #E6CD6C",
"c. c #E8D66D",
"v. c #E2D576",
"b. c #ECDC73",
"n. c #E4DA7A",
"m. c #ECDD7B",
"M. c #E8D774",
"N. c #F3D972",
"B. c #EDE07D",
"V. c #F2E175",
"C. c #F3E37D",
"Z. c #F8E779",
"A. c #FCE977",
"S. c #6C8780",
"D. c #7C8981",
"F. c #898E82",
"G. c #929687",
"H. c #AEAF90",
"J. c #B1B393",
"K. c #E4DE97",
"L. c #F5E982",
"P. c #FBEC82",
"I. c #FEF487",
"U. c #FFF788",
"Y. c #FFF888",
"T. c #EDE49B",
"R. c #EAE197",
"E. c #F0E79D",
"W. c #FAE998",
"Q. c #FEF09C",
"!. c #EFE9A6",
"~. c #C3CDC3",
"^. c #DEE7CA",
"/. c #DCE6D4",
"(. c #E7EDCD",
"). c #EAEAC5",
"_. c #EBF0CF",
"`. c #E6EED2",
"'. c #E1EEDD",
"]. c #E6F1DC",
"[. c #E9F2DA",
"{. c #EBF1D4",
"}. c #F9FFDE",
"|. c #E5F2E1",
" X c #FEFFE2",
".X c None",
/* pixels */
".X.X.X.X.X.X.X.X.X.X.X.X.X.X.X.X.X.X.X.X.X.X.X.X.X.X.X.X.X.X",
".X.X.X.X.X.X.X.X.X.X.X.X.X.X.X.X.X.X.X.X.X.X.X.X.X.X.X.X.X.X",
".X.X.X.X.X.X.X.X.X.X.X.X.X.X.X.X.X.X.X.X.X.X.X.X.X.X.X.X.X.X",
".X.X.X.X.X.X.X.X.X.X.X.X.X.X.X.X.X.X.X.X.X.X.X.X.X.X.X.X.X.X",
".X.X.X.X.X.X.X.X.X.X.X.X.X.X.X.X.X.X.X.X.X.X.X.X.X.X.X.X.X.X",
".X.X.X.X.X.X.X.X.X.X.X.X.X.X.X.X.X.X.X.X.X.X.X.X.X.X.X.X.X.X",
".X.X.X.X.X.X  X % ; .X.X.X.X.X.X.X.X.X.X.X.X; & X   .X.X.X.X",
".X.X.X.X.X.X>.#.V & .X.X.X.X.X.X.X.X.X.X.X.X4 x 5.>..X.X.X.X",
".X.X.X.X8 O.l.k.#.% & - - - - - - - - - - o 4 F l.k.>.X .X.X",
".X.X.X.X8 4.Z.V.<.% 1 u y y y y y y y y u , 4 +.Z.V.9.o .X.X",
".X.X.X.X9 4.Z.b.,.% a } [ [ [ [ [ [ [ [ } a 4 O.Z.V.7.o .X.X",
".X.X.X.X8 3.E.K.3.r ! X. . . . . . . .....~ s K T.R.t.  .X.X",
".X.X.X.Xw r.{.^.D.e / ] ' ` ` ' ' ` ' ' ] ^ j %.`.(.G.  .X.X",
".X.X.X.Xw r._.^.r.e / ' ` ` ` ` ` ' ` ' ] / j %._.(.G.  .X.X",
".X.X.X.X9 e.E.K.e.$ ! X... . ...X...| ` ` W s %.T.R.t.  .X.X",
".X.X.X.X8 >.V.c.>.< T ~ W I I I I I I W ~ R f H V.b.6.o .X.X",
".X.X.X.X9 >.N.b.>., T ~ j 5 5 6 6 6 3 j } E f H b.b.6.o .X.X",
".X.X.X.X9 >.L.n.>.O a o.P &.&.&.&.&.%.P o.i 5 H C.m.6.o .X.X",
".X.X.X.X8 #.C.v.+.  2 L ~.].].[.[.].|.~.L   . Z B.B.7.X .X.X",
".X.X.X.X8 4.C.C.i.B m y.).}.[././.[. X).y.k _ u.P.B.5.X .X.X",
".X.X.X.X8 2.m.U.L.x.p.d.Q.!.J.D.r.H.!.W.x.p.x.C.Y.B.5.X .X.X",
".X.X.X.X5 F g.n.B.x.a.f.A.c.M     l b.A.s.p.x.m.z.j.J % .X.X",
".X.X.X.X; h A #.<.+.) q.Z.M.,.  # B b.V.0.b +.5.>.A x & .X.X",
".X.X.X.X: q d $ X X > G k.l.8.D F 9.z.j.+.% X X r d q - .X.X",
".X.X.X.Xq n ;.=.n , R | C 8.z.Z.Z.v.8.$.{ T t z :.:.b & .X.X",
".X.X.X.X9 $.s.d.) = p R @ S g.C.m.g.c + Y p ; v f.d.@.% .X.X",
".X.X.X.X8 +.N.c.+.. * < . % N >.O.Z % X > O X D N.N.6.o .X.X",
".X.X.X.X0 #.L.C.u.F H H O.+.D Z Z F O.O.O.H +.w.L.B.6.X .X.X",
".X.X.X.X9 O.m.P.m.z.z.z.v.v.z.l.l.v.v.v.z.z.z.m.I.n.4.o .X.X",
".X.X.X.X9 O.M.I.Y.Y.Y.Y.Y.Y.Y.Y.U.U.Y.Y.Y.Y.Y.U.U.v.2.o .X.X"
};
